<?xml version="1.0" encoding="utf-8"?>
<!-- Generator: Adobe Illustrator 18.1.1, SVG Export Plug-In . SVG Version: 6.00 Build 0)  -->
<svg version="1.1" id="Layer_1" xmlns="http://www.w3.org/2000/svg" xmlns:xlink="http://www.w3.org/1999/xlink" x="0px" y="0px"
	 width="130px" height="112px" viewBox="-355 548.5 130 112" style="enable-background:new -355 530.5 130 130;"
	 xml:space="preserve">
<style type="text/css">
	.st0{fill:#CCCCCC;}
	.st1{fill:#F15A24;}
	.st2{fill:#B3B3B3;}
</style>
<g>
	<g>
		<polygon class="st0" points="-238.2,574.8 -238.2,574.3 -328.8,574.3 -328.8,554 -238.8,554 -238.8,574.8 -238.2,574.8 
			-238.2,574.3 -238.2,574.8 -237.7,574.8 -237.7,552.8 -329.9,552.8 -329.9,575.4 -237.7,575.4 -237.7,574.8 		"/>
		<polygon class="st0" points="-238.2,653.8 -238.2,653.2 -328.8,653.2 -328.8,638.7 -238.8,638.7 -238.8,653.8 -238.2,653.8 
			-238.2,653.2 -238.2,653.8 -237.7,653.8 -237.7,637.5 -329.9,637.5 -329.9,654.4 -237.7,654.4 -237.7,653.8 		"/>
		<polygon class="st0" points="-264.3,635.2 -263.8,635.2 -263.8,578.3 -238.8,578.3 -238.8,634.6 -264.3,634.6 -264.3,635.2 
			-263.8,635.2 -264.3,635.2 -264.3,635.8 -237.7,635.8 -237.7,577.2 -264.9,577.2 -264.9,635.8 -264.3,635.8 		"/>
		<polygon class="st1" points="-329.4,635.4 -329.4,635.9 -266.7,635.9 -266.7,577.2 -329.9,577.2 -329.9,635.9 -329.4,635.9 
			-329.4,635.4 -328.8,635.4 -328.8,578.3 -267.8,578.3 -267.8,634.8 -329.4,634.8 -329.4,635.4 -328.8,635.4 		"/>
	</g>
	<rect x="-304.3" y="617.3" class="st2" width="28.7" height="2.3"/>
	<rect x="-304.3" y="626.2" class="st2" width="25.7" height="2.3"/>
	<rect x="-304.3" y="621.7" class="st2" width="32" height="2.3"/>
	<rect x="-304.3" y="588.2" class="st2" width="32" height="2.3"/>
	<rect x="-304.3" y="602.7" class="st2" width="32" height="2.3"/>
	<path class="st2" d="M-308.1,598.4h-14.9h-0.1h-0.3h-0.2v10.4h16.2v-10.4H-308.1L-308.1,598.4z M-308.7,599.1l-6.3,6.3
		c-0.3,0.3-0.8,0.3-1.1,0l-6.3-6.3H-308.7z M-323,599.4l4.2,4.2l-4.2,4.2V599.4z M-322.4,608.2l4.1-4.1l1.8,1.8
		c0.3,0.3,0.6,0.4,1,0.4s0.7-0.1,1-0.4l1.8-1.8l4.1,4.1H-322.4z M-308.1,607.8l-4.2-4.2l4.2-4.2V607.8z"/>
	<g>
		<path class="st2" d="M-315.5,614.6c-2.8,0-5.1,2.3-5.1,5.1c0,2.1,2,6,3.8,8.9c0.6,1.1,1.1,1.8,1.1,1.8l0.3,0.4l0.3-0.4
			c0,0,0.5-0.7,1.1-1.8c1.7-2.9,3.8-6.9,3.8-8.9C-310.3,616.9-312.6,614.6-315.5,614.6z M-314.7,628.3c-0.3,0.6-0.6,1-0.8,1.3
			c-0.2-0.3-0.5-0.8-0.8-1.3c-1.4-2.3-3.7-6.6-3.7-8.6c0-2.5,2-4.5,4.5-4.5c2.5,0,4.5,2,4.5,4.5C-311,621.8-313.3,626-314.7,628.3z"
			/>
		<path class="st2" d="M-315.5,616.5c-1.8,0-3.2,1.4-3.2,3.2c0,1.8,1.4,3.2,3.2,3.2c1.8,0,3.2-1.4,3.2-3.2
			C-312.3,618-313.7,616.5-315.5,616.5z M-315.5,622.3c-1.4,0-2.6-1.1-2.6-2.6c0-1.4,1.1-2.6,2.6-2.6c1.4,0,2.6,1.1,2.6,2.6
			C-312.9,621.1-314.1,622.3-315.5,622.3z"/>
	</g>
	<path class="st2" d="M-312.1,594.5L-312.1,594.5c-1.7,0-5-1.6-6.6-3.2c-1.6-1.6-3.2-4.9-3.2-6.5v-0.1l0.1-0.1
		c0.4-0.6,1.7-2.5,2.6-2.5c0.7,0,2.2,1.4,2.7,2.4c0.3,0.6,0.1,1-0.1,1.2c-0.3,0.3-0.6,0.5-0.9,0.7c-0.4,0.3-0.6,0.4-0.6,0.7
		c0,0.7,0.7,1.4,1.5,2.1c0.7,0.7,1.5,1.5,2.1,1.5c0.3,0,0.4-0.1,0.7-0.6c0.2-0.3,0.4-0.6,0.7-0.9c0.2-0.2,0.4-0.2,0.6-0.2
		c1.1,0,3,1.9,3,2.8C-309.6,592.7-311.5,594-312.1,594.5L-312.1,594.5z M-321.3,584.9c0.1,1.5,1.6,4.5,3,5.9c1.4,1.4,4.4,3,5.9,3
		c1-0.7,2.1-1.7,2.1-2c0-0.5-1.6-2.2-2.4-2.2c-0.1,0-0.2,0-0.2,0.1c-0.3,0.3-0.4,0.6-0.6,0.8c-0.3,0.4-0.5,0.9-1.2,0.9
		c-0.9,0-1.7-0.8-2.6-1.7c-0.8-0.8-1.7-1.7-1.7-2.6c0-0.7,0.4-0.9,0.9-1.2c0.2-0.2,0.5-0.3,0.8-0.6c0.1-0.1,0.1-0.4,0-0.6
		c-0.4-1-1.7-2-2.1-2C-319.6,582.7-320.6,583.8-321.3,584.9z"/>
</g>
</svg>
