<?xml version="1.0" encoding="utf-8"?>
<!-- Generator: Adobe Illustrator 19.2.1, SVG Export Plug-In . SVG Version: 6.00 Build 0)  -->
<svg version="1.1" id="Layer_1" xmlns="http://www.w3.org/2000/svg" xmlns:xlink="http://www.w3.org/1999/xlink" x="0px" y="0px"
	 width="130px" height="112px" viewBox="0 18 130 112" enable-background="new 0 0 130 130" xml:space="preserve">
<style type="text/css">
	.st2{fill:none;stroke:#B3B3B3;stroke-width:2;stroke-miterlimit:10;}
	.st3{fill:none;stroke:#F15A24;stroke-width:2;stroke-miterlimit:10;}
</style>
<g>
	<g>
		<polygon fill="#F15A24" points="116.379,49.784 116.379,49.204 25.852,49.204 25.852,23.888 115.799,23.888 115.799,49.784
			116.379,49.784 116.379,49.204 116.379,49.784 116.96,49.784 116.96,22.728 24.69,22.728 24.69,50.364 116.96,50.364
			116.96,49.784 		"/>
		<polygon fill="#CCCCCC" points="116.379,123.719 116.379,123.139 25.837,123.139 25.837,108.629 115.799,108.629 115.799,123.719
			116.379,123.719 116.379,123.139 116.379,123.719 116.96,123.719 116.96,107.467 24.676,107.467 24.676,124.299 116.96,124.299
			116.96,123.719 		"/>
		<polygon fill="#CCCCCC" points="101.288,105.147 101.87,105.147 101.87,53.266 115.799,53.266 115.799,104.566 101.288,104.566
			101.288,105.147 101.87,105.147 101.288,105.147 101.288,105.727 116.96,105.727 116.96,52.107 100.708,52.107 100.708,105.727
			101.288,105.727 		"/>
		<polygon fill="#CCCCCC" points="25.253,105.301 25.253,105.881 98.951,105.881 98.951,52.107 24.673,52.107 24.673,105.881
			25.253,105.881 25.253,105.301 25.834,105.301 25.834,53.266 97.79,53.266 97.79,104.721 25.253,104.721 25.253,105.301
			25.834,105.301 		"/>
		<line class="st2" x1="35" y1="37.2" x2="50.4" y2="37.2"/>
        <line class="st3" x1="54.5" y1="37.2" x2="67.5" y2="37.2"/>
        <line class="st3" x1="71.5" y1="37.2" x2="85.3" y2="37.2"/>
        <line class="st3" x1="89.4" y1="37.2" x2="104" y2="37.2"/>
	</g>
</g>
</svg>
