<?xml version="1.0" encoding="utf-8"?>
<!-- Generator: Adobe Illustrator 18.1.1, SVG Export Plug-In . SVG Version: 6.00 Build 0)  -->
<svg version="1.1" id="Layer_1" xmlns="http://www.w3.org/2000/svg" xmlns:xlink="http://www.w3.org/1999/xlink" x="0px" y="0px"
	 width="130px" height="112px" viewBox="0 18 130 112" enable-background="new 0 0 130 130" xml:space="preserve">
<g>
	<g>
		<polygon fill="#F15A24" points="116.7,44.6 116.7,44 26.2,44 26.2,23.7 116.1,23.7 116.1,44.6 116.7,44.6 116.7,44 116.7,44.6 
			117.3,44.6 117.3,22.6 25,22.6 25,45.2 117.3,45.2 117.3,44.6 		"/>
		<polygon fill="#CCCCCC" points="116.7,123.5 116.7,123 26.2,123 26.2,108.5 116.1,108.5 116.1,123.5 116.7,123.5 116.7,123 
			116.7,123.5 117.3,123.5 117.3,107.3 25,107.3 25,124.1 117.3,124.1 117.3,123.5 		"/>
		<polygon fill="#CCCCCC" points="101.6,105 102.2,105 102.2,48.1 116.1,48.1 116.1,104.4 101.6,104.4 101.6,105 102.2,105 
			101.6,105 101.6,105.6 117.3,105.6 117.3,46.9 101,46.9 101,105.6 101.6,105.6 		"/>
		<polygon fill="#CCCCCC" points="25.6,105.1 25.6,105.7 99.3,105.7 99.3,46.9 25,46.9 25,105.7 25.6,105.7 25.6,105.1 26.2,105.1 
			26.2,48.1 98.1,48.1 98.1,104.5 25.6,104.5 25.6,105.1 26.2,105.1 		"/>
	</g>
	<g>
		<path fill="#F15A24" d="M31.9,38.6V30h1.8v7.1h3.5v1.5H31.9z"/>
		<path fill="#F15A24" d="M46.3,34.3c0,1.4-0.4,2.5-1.1,3.3s-1.7,1.1-3,1.1s-2.3-0.4-3-1.1s-1.1-1.9-1.1-3.3s0.4-2.5,1.1-3.3
			s1.7-1.1,3-1.1s2.3,0.4,3,1.1S46.3,32.9,46.3,34.3z M40.1,34.3c0,1,0.2,1.7,0.5,2.2s0.9,0.7,1.6,0.7c1.4,0,2.2-1,2.2-2.9
			c0-1.9-0.7-2.9-2.2-2.9c-0.7,0-1.3,0.2-1.6,0.7S40.1,33.4,40.1,34.3z"/>
		<path fill="#F15A24" d="M51.2,33.8h3.4v4.4c-0.6,0.2-1.1,0.3-1.6,0.4s-1,0.1-1.5,0.1c-1.3,0-2.3-0.4-3-1.1s-1-1.9-1-3.3
			c0-1.4,0.4-2.5,1.2-3.2s1.9-1.2,3.3-1.2c0.9,0,1.7,0.2,2.5,0.5L54,31.9c-0.6-0.3-1.3-0.5-2-0.5c-0.8,0-1.4,0.3-1.9,0.8
			s-0.7,1.2-0.7,2.1c0,0.9,0.2,1.6,0.6,2.1s0.9,0.7,1.7,0.7c0.4,0,0.8,0,1.2-0.1v-1.8h-1.6V33.8z"/>
		<path fill="#F15A24" d="M64.3,34.3c0,1.4-0.4,2.5-1.1,3.3s-1.7,1.1-3,1.1s-2.3-0.4-3-1.1s-1.1-1.9-1.1-3.3s0.4-2.5,1.1-3.3
			s1.7-1.1,3-1.1s2.3,0.4,3,1.1S64.3,32.9,64.3,34.3z M58.1,34.3c0,1,0.2,1.7,0.5,2.2s0.9,0.7,1.6,0.7c1.4,0,2.2-1,2.2-2.9
			c0-1.9-0.7-2.9-2.2-2.9c-0.7,0-1.3,0.2-1.6,0.7S58.1,33.4,58.1,34.3z"/>
	</g>
</g>
</svg>
