<?xml version="1.0" encoding="utf-8"?>
<!-- Generator: Adobe Illustrator 21.0.0, SVG Export Plug-In . SVG Version: 6.00 Build 0)  -->
<svg version="1.1" id="Layer_1" xmlns="http://www.w3.org/2000/svg" xmlns:xlink="http://www.w3.org/1999/xlink" x="0px" y="0px"
	 viewBox="0 0 130 103.5" style="enable-background:new 0 0 130 103.5;" xml:space="preserve">
<style type="text/css">
	.st0{fill:#CCCCCC;}
	.st1{fill:#F15A24;}
	.st2{fill:#B3B3B3;}
</style>
<g>
	<polygon class="st0" points="112.3,24.8 112.3,24.2 21.8,24.2 21.8,11 111.7,11 111.7,24.8 112.3,24.8 112.3,24.2 112.3,24.8 
		112.9,24.8 112.9,9.9 20.6,9.9 20.6,25.4 112.9,25.4 112.9,24.8 	"/>
	<polygon class="st0" points="112.3,96.8 112.3,96.2 21.8,96.2 21.8,88.7 111.7,88.7 111.7,96.8 112.3,96.8 112.3,96.2 112.3,96.8 
		112.9,96.8 112.9,87.5 20.6,87.5 20.6,97.3 112.9,97.3 112.9,96.8 	"/>
	<polygon class="st0" points="97.2,85.2 97.8,85.2 97.8,28.3 111.7,28.3 111.7,84.6 97.2,84.6 97.2,85.2 97.8,85.2 97.2,85.2 
		97.2,85.8 112.9,85.8 112.9,27.2 96.7,27.2 96.7,85.8 97.2,85.8 	"/>
	<polygon class="st1" points="21.2,85.3 21.2,85.9 94.9,85.9 94.9,27.2 20.6,27.2 20.6,85.9 21.2,85.9 21.2,85.3 21.8,85.3 
		21.8,28.3 93.7,28.3 93.7,84.8 21.2,84.8 21.2,85.3 21.8,85.3 	"/>
	<path class="st2" d="M25.2,58.5v15.9h20.4V58.5H25.2z M30.2,60.5c1.1,0,2,0.9,2,2s-0.9,2-2,2s-2-0.9-2-2
		C28.2,61.4,29.1,60.5,30.2,60.5z M27.7,72.5l2.6-4.4l0.8,1.4l1.8,3H27.7z M34.6,72.5l-2.2-3.7l3.4-3.8l7.5,7.6L34.6,72.5L34.6,72.5
		z"/>
	<path class="st2" d="M47.9,58.5v15.9h20.4V58.5H47.9z M53,60.5c1.1,0,2,0.9,2,2s-0.9,2-2,2s-2-0.9-2-2C51,61.4,51.9,60.5,53,60.5z
		 M50.5,72.5l2.6-4.4l0.8,1.4l1.8,3H50.5z M57.4,72.5l-2.2-3.8l3.4-3.8l7.5,7.6C66.1,72.5,57.4,72.5,57.4,72.5z"/>
	<path class="st2" d="M70.7,58.5v15.9h20.4V58.5H70.7z M75.8,60.5c1.1,0,2,0.9,2,2s-0.9,2-2,2s-2-0.9-2-2
		C73.7,61.4,74.6,60.5,75.8,60.5z M73.2,72.5l2.6-4.4l0.8,1.4l1.8,3H73.2z M80.1,72.5l-2.2-3.8l3.4-3.8l7.5,7.6
		C88.8,72.5,80.1,72.5,80.1,72.5z"/>
	<path class="st2" d="M25.2,32.6v15.9h20.4V32.6H25.2z M30.2,34.6c1.1,0,2,0.9,2,2s-0.9,2-2,2s-2-0.9-2-2
		C28.2,35.5,29.1,34.6,30.2,34.6z M27.7,46.6l2.6-4.4l0.8,1.4l1.8,3H27.7z M34.6,46.6l-2.2-3.7l3.4-3.8l7.5,7.6L34.6,46.6L34.6,46.6
		z"/>
	<path class="st2" d="M47.9,32.6v15.9h20.4V32.6H47.9z M53,34.6c1.1,0,2,0.9,2,2s-0.9,2-2,2s-2-0.9-2-2C51,35.5,51.9,34.6,53,34.6z
		 M50.5,46.6l2.6-4.4l0.8,1.4l1.8,3H50.5z M57.4,46.6l-2.2-3.8l3.4-3.8l7.5,7.6H57.4z"/>
	<path class="st2" d="M70.7,32.6v15.9h20.4V32.6H70.7z M75.8,34.6c1.1,0,2,0.9,2,2s-0.9,2-2,2s-2-0.9-2-2
		C73.7,35.5,74.6,34.6,75.8,34.6z M73.2,46.6l2.6-4.4l0.8,1.4l1.8,3H73.2z M80.1,46.6l-2.2-3.8l3.4-3.8l7.5,7.6H80.1z"/>
	<rect x="25.2" y="50.4" class="st2" width="9.8" height="1.2"/>
	<rect x="25.2" y="52.7" class="st1" width="7.5" height="1.2"/>
	<polygon class="st2" points="38.8,49.5 39.2,50.9 40.8,50.9 39.5,51.9 40,53.3 38.8,52.4 37.5,53.3 38,51.9 36.7,50.9 38.3,50.9 	
		"/>
	<polygon class="st2" points="43.5,49.5 43.9,50.9 45.5,50.9 44.2,51.9 44.7,53.3 43.5,52.4 42.2,53.3 42.7,51.9 41.4,50.9 43,50.9 
			"/>
	<rect x="47.9" y="50.4" class="st2" width="9.8" height="1.2"/>
	<rect x="47.9" y="52.7" class="st1" width="7.5" height="1.2"/>
	<polygon class="st2" points="61.4,49.5 61.9,50.9 63.5,50.9 62.2,51.9 62.7,53.3 61.4,52.4 60.2,53.3 60.7,51.9 59.4,50.9 61,50.9 
			"/>
	<polygon class="st2" points="66.1,49.5 66.6,50.9 68.2,50.9 66.9,51.9 67.4,53.3 66.1,52.4 64.9,53.3 65.4,51.9 64.1,50.9 
		65.6,50.9 	"/>
	<rect x="70.8" y="50.4" class="st2" width="9.8" height="1.2"/>
	<rect x="70.8" y="52.7" class="st1" width="7.5" height="1.2"/>
	<polygon class="st2" points="84.3,49.5 84.8,50.9 86.4,50.9 85.1,51.9 85.6,53.3 84.3,52.4 83.1,53.3 83.6,51.9 82.3,50.9 
		83.9,50.9 	"/>
	<polygon class="st2" points="89,49.5 89.5,50.9 91.1,50.9 89.8,51.9 90.3,53.3 89,52.4 87.8,53.3 88.3,51.9 87,50.9 88.6,50.9 	"/>
	<rect x="25.2" y="76.3" class="st2" width="9.8" height="1.2"/>
	<rect x="25.2" y="78.6" class="st1" width="7.5" height="1.2"/>
	<polygon class="st2" points="38.8,75.4 39.2,76.9 40.8,76.9 39.5,77.8 40,79.2 38.8,78.3 37.5,79.2 38,77.8 36.7,76.9 38.3,76.9 	
		"/>
	<polygon class="st2" points="43.5,75.4 43.9,76.9 45.5,76.9 44.2,77.8 44.7,79.2 43.5,78.3 42.2,79.2 42.7,77.8 41.4,76.9 43,76.9 
			"/>
	<rect x="47.9" y="76.3" class="st2" width="9.8" height="1.2"/>
	<rect x="47.9" y="78.6" class="st1" width="7.5" height="1.2"/>
	<polygon class="st2" points="61.4,75.4 61.9,76.9 63.5,76.9 62.2,77.8 62.7,79.2 61.4,78.3 60.2,79.2 60.7,77.8 59.4,76.9 61,76.9 
			"/>
	<polygon class="st2" points="66.1,75.4 66.6,76.9 68.2,76.9 66.9,77.8 67.4,79.2 66.1,78.3 64.9,79.2 65.4,77.8 64.1,76.9 
		65.6,76.9 	"/>
	<rect x="70.8" y="76.3" class="st2" width="9.8" height="1.2"/>
	<rect x="70.8" y="78.6" class="st1" width="7.5" height="1.2"/>
	<polygon class="st2" points="84.3,75.4 84.8,76.9 86.4,76.9 85.1,77.8 85.6,79.2 84.3,78.3 83.1,79.2 83.6,77.8 82.3,76.9 
		83.9,76.9 	"/>
	<polygon class="st2" points="89,75.4 89.5,76.9 91.1,76.9 89.8,77.8 90.3,79.2 89,78.3 87.8,79.2 88.3,77.8 87,76.9 88.6,76.9 	"/>
</g>
</svg>
