<?xml version="1.0" encoding="utf-8"?>
<!-- Generator: Adobe Illustrator 18.1.1, SVG Export Plug-In . SVG Version: 6.00 Build 0)  -->
<svg version="1.1" id="Layer_1" xmlns="http://www.w3.org/2000/svg" xmlns:xlink="http://www.w3.org/1999/xlink" x="0px" y="0px"
	 width="130px" height="112px" viewBox="0 18 130 112" enable-background="new 0 0 130 130" xml:space="preserve">
<g>
	<g>
		<polygon fill="#F15A24" points="116.6,56.5 116.6,55.9 26.1,55.9 26.1,23.6 116,23.6 116,56.5 116.6,56.5 116.6,55.9 116.6,56.5 
			117.2,56.5 117.2,22.4 24.9,22.4 24.9,57.1 117.2,57.1 117.2,56.5 		"/>
		<polygon fill="#CCCCCC" points="116.6,123.4 116.6,122.8 26,122.8 26,108.3 116,108.3 116,123.4 116.6,123.4 116.6,122.8 
			116.6,123.4 117.2,123.4 117.2,107.1 24.9,107.1 24.9,124 117.2,124 117.2,123.4 		"/>
		<polygon fill="#CCCCCC" points="101.5,104.8 102.1,104.8 102.1,60 116,60 116,104.2 101.5,104.2 101.5,104.8 102.1,104.8 
			101.5,104.8 101.5,105.4 117.2,105.4 117.2,58.8 100.9,58.8 100.9,105.4 101.5,105.4 		"/>
		<polygon fill="#CCCCCC" points="25.5,105 25.5,105.6 99.2,105.6 99.2,58.8 24.9,58.8 24.9,105.6 25.5,105.6 25.5,105 26,105 
			26,60 98,60 98,104.4 25.5,104.4 25.5,105 26,105 		"/>
	</g>
	<g>
		<rect x="29.3" y="41.2" fill="#B3B3B3" width="37.3" height="11"/>
		
			<rect x="29.8" y="27" fill="#F2F2F2" stroke="#B3B3B3" stroke-width="0.5446" stroke-miterlimit="10" width="82.4" height="12.4"/>
		<g>
			<path fill="#FFFFFF" d="M36.6,47.6c0,0.4-0.1,0.8-0.3,1.1c-0.2,0.3-0.5,0.6-0.9,0.7c-0.4,0.2-0.8,0.3-1.4,0.3
				c-0.4,0-0.8,0-1.1-0.1c-0.3-0.1-0.6-0.2-0.9-0.3v-1.6c0.3,0.2,0.7,0.3,1,0.4s0.7,0.1,1,0.1c0.3,0,0.5,0,0.6-0.1s0.2-0.2,0.2-0.4
				c0-0.1,0-0.2-0.1-0.2c0-0.1-0.1-0.1-0.2-0.2c-0.1-0.1-0.4-0.2-0.9-0.4c-0.4-0.2-0.7-0.4-1-0.6c-0.2-0.2-0.4-0.4-0.5-0.6
				c-0.1-0.2-0.2-0.5-0.2-0.8c0-0.6,0.2-1.1,0.7-1.4c0.4-0.3,1-0.5,1.8-0.5c0.7,0,1.4,0.2,2.1,0.5L36,44.8c-0.6-0.3-1.1-0.4-1.6-0.4
				c-0.2,0-0.4,0-0.5,0.1c-0.1,0.1-0.2,0.2-0.2,0.3c0,0.1,0.1,0.2,0.2,0.3c0.1,0.1,0.5,0.3,1.1,0.6c0.6,0.3,1,0.5,1.2,0.8
				S36.6,47.2,36.6,47.6z"/>
			<path fill="#FFFFFF" d="M39.8,49.7c-0.8,0-1.5-0.2-2-0.7c-0.5-0.4-0.7-1.1-0.7-1.9c0-0.9,0.2-1.5,0.6-2c0.4-0.5,1-0.7,1.8-0.7
				c0.8,0,1.4,0.2,1.8,0.6c0.4,0.4,0.6,1,0.6,1.7v0.8h-3.1c0,0.3,0.1,0.5,0.3,0.7c0.2,0.2,0.5,0.2,0.8,0.2c0.3,0,0.6,0,0.8-0.1
				c0.3-0.1,0.5-0.2,0.8-0.3v1.3c-0.3,0.1-0.6,0.2-0.8,0.3S40.2,49.7,39.8,49.7z M39.7,45.7c-0.2,0-0.4,0.1-0.5,0.2
				c-0.1,0.1-0.2,0.3-0.2,0.6h1.5c0-0.2-0.1-0.4-0.2-0.6C40.1,45.7,39.9,45.7,39.7,45.7z"/>
			<path fill="#FFFFFF" d="M46.2,49.6L45.9,49h0c-0.2,0.3-0.5,0.5-0.7,0.6s-0.6,0.2-0.9,0.2c-0.5,0-0.9-0.1-1.1-0.4
				c-0.3-0.3-0.4-0.7-0.4-1.2c0-0.5,0.2-0.9,0.6-1.2c0.4-0.3,0.9-0.4,1.6-0.4l0.8,0v-0.1c0-0.4-0.2-0.6-0.6-0.6
				c-0.4,0-0.8,0.1-1.4,0.4l-0.5-1.2c0.6-0.3,1.3-0.5,2.2-0.5c0.6,0,1.2,0.2,1.5,0.5c0.4,0.3,0.5,0.8,0.5,1.3v3.3H46.2z M44.9,48.5
				c0.2,0,0.4-0.1,0.5-0.2c0.2-0.1,0.2-0.3,0.2-0.5v-0.4l-0.4,0c-0.6,0-0.9,0.2-0.9,0.6C44.4,48.3,44.6,48.5,44.9,48.5z"/>
			<path fill="#FFFFFF" d="M51.6,44.5c0.2,0,0.3,0,0.4,0l0.1,0L52,46.2c-0.1,0-0.3-0.1-0.6-0.1c-0.4,0-0.7,0.1-0.8,0.3
				c-0.2,0.2-0.3,0.4-0.3,0.8v2.5h-1.7v-5.1h1.3l0.3,0.8h0.1c0.1-0.3,0.3-0.5,0.6-0.7S51.3,44.5,51.6,44.5z"/>
			<path fill="#FFFFFF" d="M55.1,49.7c-0.8,0-1.5-0.2-1.9-0.7c-0.4-0.4-0.6-1.1-0.6-1.9c0-0.8,0.2-1.5,0.7-2c0.5-0.5,1.1-0.7,2-0.7
				c0.6,0,1.1,0.1,1.7,0.4l-0.5,1.3c-0.2-0.1-0.4-0.2-0.6-0.2c-0.2-0.1-0.4-0.1-0.6-0.1c-0.3,0-0.5,0.1-0.7,0.3
				c-0.2,0.2-0.2,0.5-0.2,0.9c0,0.8,0.3,1.2,0.9,1.2c0.5,0,1-0.1,1.5-0.4v1.4C56.2,49.6,55.7,49.7,55.1,49.7z"/>
			<path fill="#FFFFFF" d="M60.8,49.6v-2.8c0-0.7-0.2-1-0.6-1c-0.3,0-0.5,0.1-0.6,0.4c-0.1,0.2-0.2,0.6-0.2,1.2v2.2h-1.7v-7h1.7v1
				c0,0.4,0,1-0.1,1.5h0.1c0.2-0.3,0.4-0.4,0.6-0.6c0.2-0.1,0.5-0.2,0.8-0.2c0.6,0,1,0.2,1.3,0.5s0.5,0.8,0.5,1.4v3.3H60.8z"/>
		</g>
	</g>
</g>
</svg>
