<?xml version="1.0" encoding="utf-8"?>
<!-- Generator: Adobe Illustrator 18.1.1, SVG Export Plug-In . SVG Version: 6.00 Build 0)  -->
<svg version="1.1" id="Layer_1" xmlns="http://www.w3.org/2000/svg" xmlns:xlink="http://www.w3.org/1999/xlink" x="0px" y="0px"
	 width="130px" height="112px" viewBox="-350 548.5 130 112" style="enable-background:new -355 530.5 130 130;"
	 xml:space="preserve">
<style type="text/css">
	.st0{fill:#CCCCCC;}
	.st1{fill:#F15A24;}
	.st2{fill:#FFFFFF;}
	.st3{fill:#B3B3B3;}
	.st4{fill:none;stroke:#B3B3B3;stroke-width:3;stroke-miterlimit:10;}
	.st5{fill:none;stroke:#F15A24;stroke-width:3;stroke-miterlimit:10;}
	.st6{fill:none;stroke:#FFFFFF;stroke-width:1.9632;stroke-miterlimit:10;}
</style>
<g>
	<polygon class="st0" points="-237.8,653.9 -237.8,653.3 -328.4,653.3 -328.4,638.8 -238.4,638.8 -238.4,653.9 -237.8,653.9 
		-237.8,653.3 -237.8,653.9 -237.3,653.9 -237.3,637.6 -329.5,637.6 -329.5,654.4 -237.3,654.4 -237.3,653.9 	"/>
	<polygon class="st0" points="-252.9,635.3 -252.3,635.3 -252.3,578.4 -238.4,578.4 -238.4,634.7 -252.9,634.7 -252.9,635.3 
		-252.3,635.3 -252.9,635.3 -252.9,635.9 -237.3,635.9 -237.3,577.2 -253.5,577.2 -253.5,635.9 -252.9,635.9 	"/>
	<polygon class="st0" points="-329,635.4 -329,636 -255.3,636 -255.3,577.2 -329.5,577.2 -329.5,636 -329,636 -329,635.4 
		-328.4,635.4 -328.4,578.4 -256.4,578.4 -256.4,634.9 -329,634.9 -329,635.4 -328.4,635.4 	"/>
	<g>
		<rect x="-326.7" y="575.6" class="st1" width="94.4" height="10"/>
		<rect x="-326" y="558.2" class="st2" width="93" height="16"/>
		<polygon class="st3" points="-232.9,574.1 -232.9,573.5 -325.3,573.5 -325.3,559.1 -233.5,559.1 -233.5,574.1 -232.9,574.1 
			-232.9,573.5 -232.9,574.1 -232.3,574.1 -232.3,557.9 -326.5,557.9 -326.5,574.7 -232.3,574.7 -232.3,574.1 		"/>
		<line class="st4" x1="-322" y1="565.7" x2="-303" y2="565.7"/>
		<line class="st5" x1="-298" y1="565.7" x2="-282" y2="565.7"/>
		<line class="st4" x1="-277" y1="565.7" x2="-260" y2="565.7"/>
		<line class="st6" x1="-297.9" y1="580.3" x2="-279.6" y2="580.3"/>
		<line class="st6" x1="-274.7" y1="580.3" x2="-259.3" y2="580.3"/>
		<line class="st6" x1="-254.5" y1="580.3" x2="-238.1" y2="580.3"/>
		<line class="st4" x1="-255" y1="565.7" x2="-237" y2="565.7"/>
	</g>
</g>
</svg>
