<?xml version="1.0" encoding="utf-8"?>
<!-- Generator: Adobe Illustrator 18.1.1, SVG Export Plug-In . SVG Version: 6.00 Build 0)  -->
<svg version="1.1" id="Layer_1" xmlns="http://www.w3.org/2000/svg" xmlns:xlink="http://www.w3.org/1999/xlink" x="0px" y="0px"
	 width="130px" height="112px" viewBox="0 18 130 112" enable-background="new 0 0 130 130" xml:space="preserve">
<g>
	<polygon fill="#CCCCCC" points="116.5,44.8 116.5,44.2 26,44.2 26,23.9 115.9,23.9 115.9,44.8 116.5,44.8 116.5,44.2 116.5,44.8 
		117.1,44.8 117.1,22.7 24.8,22.7 24.8,45.4 117.1,45.4 117.1,44.8 	"/>
	<polygon fill="#CCCCCC" points="116.5,123.7 116.5,123.1 26,123.1 26,108.6 115.9,108.6 115.9,123.7 116.5,123.7 116.5,123.1 
		116.5,123.7 117.1,123.7 117.1,107.5 24.8,107.5 24.8,124.3 117.1,124.3 117.1,123.7 	"/>
	<polygon fill="#F15A24" points="90.4,105.2 91,105.2 91,48.3 115.9,48.3 115.9,104.6 90.4,104.6 90.4,105.2 91,105.2 90.4,105.2 
		90.4,105.7 117.1,105.7 117.1,47.1 89.8,47.1 89.8,105.7 90.4,105.7 	"/>
	<polygon fill="#CCCCCC" points="25.4,105.3 25.4,105.9 88.1,105.9 88.1,47.1 24.8,47.1 24.8,105.9 25.4,105.9 25.4,105.3 26,105.3 
		26,48.3 86.9,48.3 86.9,104.7 25.4,104.7 25.4,105.3 26,105.3 	"/>
	<rect x="94.5" y="52.8" fill="#B3B3B3" width="11.9" height="2.5"/>
	<rect x="94.5" y="57.3" fill="#B3B3B3" width="15.5" height="2.5"/>
	<rect x="94.5" y="61.8" fill="#B3B3B3" width="13.7" height="2.5"/>
	<rect x="94.5" y="66.3" fill="#B3B3B3" width="15.5" height="2.5"/>
	<rect x="94.5" y="70.8" fill="#B3B3B3" width="13.7" height="2.5"/>
	<rect x="94.5" y="75.3" fill="#B3B3B3" width="15.5" height="2.5"/>
	<rect x="94.5" y="79.8" fill="#B3B3B3" width="17.5" height="2.5"/>
</g>
</svg>
