<?xml version="1.0" encoding="utf-8"?>
<!-- Generator: Adobe Illustrator 21.0.0, SVG Export Plug-In . SVG Version: 6.00 Build 0)  -->
<svg version="1.1" id="Layer_1" xmlns="http://www.w3.org/2000/svg" xmlns:xlink="http://www.w3.org/1999/xlink" x="0px" y="0px"
	 viewBox="0 0 130 103.5" style="enable-background:new 0 0 130 103.5;" xml:space="preserve">
<style type="text/css">
	.st0{fill:#CCCCCC;}
	.st1{fill:#F15A24;}
	.st2{fill:#B3B3B3;}
	.st3{opacity:0.7;fill:#B3B3B3;enable-background:new    ;}
	.st4{enable-background:new    ;}
	.st5{fill:#FFFFFF;}
</style>
<g>
	<polygon class="st0" points="112.3,24.8 112.3,24.2 21.8,24.2 21.8,11 111.7,11 111.7,24.8 112.3,24.8 112.3,24.2 112.3,24.8 
		112.9,24.8 112.9,9.9 20.6,9.9 20.6,25.4 112.9,25.4 112.9,24.8 	"/>
	<polygon class="st0" points="112.3,96.8 112.3,96.2 21.8,96.2 21.8,88.7 111.7,88.7 111.7,96.8 112.3,96.8 112.3,96.2 112.3,96.8 
		112.9,96.8 112.9,87.5 20.6,87.5 20.6,97.3 112.9,97.3 112.9,96.8 	"/>
	<polygon class="st0" points="97.2,85.2 97.8,85.2 97.8,28.3 111.7,28.3 111.7,84.6 97.2,84.6 97.2,85.2 97.8,85.2 97.2,85.2 
		97.2,85.8 112.9,85.8 112.9,27.2 96.7,27.2 96.7,85.8 97.2,85.8 	"/>
	<g>
		<polygon class="st1" points="21.3,85.6 21.3,86.2 95,86.2 95,27.5 20.7,27.5 20.7,86.2 21.3,86.2 21.3,85.6 21.9,85.6 21.9,28.6 
			93.8,28.6 93.8,85.1 21.3,85.1 21.3,85.6 21.9,85.6 		"/>
		<path class="st2" d="M25.3,32v32h40.9V32H25.3z M35.5,36c2.2,0,4,1.8,4,4s-1.8,4.1-4,4.1s-4-1.8-4-4.1C31.4,37.8,33.2,36,35.5,36z
			 M30.4,60.1l5.3-8.8l1.7,2.8l3.6,6H30.4z M44.3,60.1l-4.4-7.5l6.8-7.7l15.1,15.2H44.3z"/>
		<path class="st3" d="M25.3,66.2V81h18.9V66.2H25.3z M30,68c1,0,1.9,0.8,1.9,1.9c0,1-0.8,1.9-1.9,1.9c-1,0-1.9-0.8-1.9-1.9
			C28.1,68.9,28.9,68,30,68z M27.6,79.2l2.4-4.1l0.8,1.3l1.7,2.8C32.5,79.2,27.6,79.2,27.6,79.2z M34.1,79.2l-2-3.5l3.2-3.6l7,7
			L34.1,79.2L34.1,79.2z"/>
		<path class="st3" d="M47.1,66.2V81H66V66.2H47.1z M51.8,68c1,0,1.9,0.8,1.9,1.9c0,1-0.8,1.9-1.9,1.9c-1,0-1.9-0.8-1.9-1.9
			C49.9,68.9,50.7,68,51.8,68z M49.4,79.2l2.4-4.1l0.8,1.3l1.7,2.8C54.3,79.2,49.4,79.2,49.4,79.2z M55.9,79.2l-2-3.5l3.2-3.6l7,7
			L55.9,79.2L55.9,79.2z"/>
		<rect x="69.4" y="44" class="st2" width="19.9" height="2.4"/>
		<rect x="69.4" y="32.3" class="st1" width="19.9" height="2.4"/>
		<rect x="69.4" y="48.6" class="st2" width="15.1" height="2.4"/>
		<rect x="69.4" y="53.3" class="st2" width="17.9" height="2.4"/>
		<rect x="69.4" y="57.9" class="st2" width="19.9" height="2.4"/>
		<rect x="68.5" y="66.2" class="st1" width="22.7" height="15"/>
		<polygon class="st1" points="71,37.1 71.5,38.4 72.8,38.4 71.7,39.2 72.1,40.5 71,39.7 70,40.5 70.4,39.2 69.3,38.4 70.6,38.4 		
			"/>
		<polygon class="st1" points="75.7,37.1 76.1,38.4 77.4,38.4 76.3,39.2 76.8,40.5 75.7,39.7 74.6,40.5 75,39.2 73.9,38.4 
			75.3,38.4 		"/>
		<polygon class="st2" points="80.3,37.1 80.7,38.4 82.1,38.4 81,39.2 81.4,40.5 80.3,39.7 79.2,40.5 79.6,39.2 78.5,38.4 
			79.9,38.4 		"/>
		<polygon class="st2" points="84.9,37.1 85.3,38.4 86.7,38.4 85.6,39.2 86,40.5 84.9,39.7 83.8,40.5 84.2,39.2 83.2,38.4 
			84.5,38.4 		"/>
		<g class="st4">
			<path class="st5" d="M71,70.9h2c0.8,0,1.4,0.1,1.8,0.4s0.6,0.6,0.6,1.1c0,0.3-0.1,0.6-0.3,0.8c-0.2,0.2-0.4,0.4-0.7,0.4v0
				c0.4,0.1,0.6,0.3,0.8,0.5c0.2,0.2,0.2,0.5,0.2,0.9c0,0.5-0.2,1-0.6,1.3c-0.4,0.3-0.9,0.5-1.6,0.5H71V70.9z M72.6,73.2h0.5
				c0.2,0,0.4,0,0.5-0.1s0.2-0.2,0.2-0.4c0-0.3-0.2-0.5-0.7-0.5h-0.4V73.2z M72.6,74.3v1.2h0.6c0.5,0,0.7-0.2,0.7-0.6
				c0-0.2-0.1-0.3-0.2-0.4c-0.1-0.1-0.3-0.2-0.6-0.2H72.6z"/>
			<path class="st5" d="M81.5,70.9v3.5c0,0.8-0.2,1.4-0.7,1.8s-1.1,0.6-1.9,0.6c-0.8,0-1.4-0.2-1.8-0.6c-0.4-0.4-0.6-1-0.6-1.8v-3.6
				h1.6v3.4c0,0.4,0.1,0.7,0.2,0.9c0.2,0.2,0.4,0.3,0.7,0.3c0.3,0,0.6-0.1,0.7-0.3c0.1-0.2,0.2-0.5,0.2-0.9v-3.4H81.5z"/>
			<path class="st5" d="M84.8,73.1l1-2.2h1.7l-1.9,3.6v2.3H84v-2.2l-1.9-3.6h1.7L84.8,73.1z"/>
		</g>
	</g>
</g>
</svg>
