<?xml version="1.0" encoding="utf-8"?>
<!-- Generator: Adobe Illustrator 19.1.0, SVG Export Plug-In . SVG Version: 6.00 Build 0)  -->
<svg version="1.1" id="Layer_1" xmlns="http://www.w3.org/2000/svg" xmlns:xlink="http://www.w3.org/1999/xlink" x="0px" y="0px"
	 viewBox="0 0 130 112" style="enable-background:new 0 0 130 112;" xml:space="preserve">
<style type="text/css">
	.st0{fill:#CCCCCC;}
	.st1{fill:#F15A24;}
	.st2{fill:#B3B3B3;}
	.st3{font-family:'OpenSans-Bold';}
	.st4{font-size:12px;}
</style>
<g>
	<polygon class="st0" points="113,27.3 113,26.7 22.5,26.7 22.5,6.4 112.5,6.4 112.5,27.3 113,27.3 113,26.7 113,27.3 113.6,27.3 
		113.6,5.2 21.4,5.2 21.4,27.9 113.6,27.9 113.6,27.3 	"/>
	<polygon class="st0" points="113,106.2 113,105.6 22.5,105.6 22.5,76.1 112.5,76.1 112.5,106.2 113,106.2 113,105.6 113,106.2 
		113.6,106.2 113.6,75 21.3,75 21.3,106.8 113.6,106.8 113.6,106.2 	"/>
	<polygon class="st0" points="98,71.6 98.5,71.6 98.5,30.8 112.5,30.8 112.5,71 98,71 98,71.6 98.5,71.6 98,71.6 98,72.2 
		113.6,72.2 113.6,29.6 97.4,29.6 97.4,72.2 98,72.2 	"/>
	<polygon class="st1" points="21.9,71.8 21.9,72.4 95.6,72.4 95.6,29.6 21.3,29.6 21.3,72.4 21.9,72.4 21.9,71.8 22.5,71.8 
		22.5,30.8 94.5,30.8 94.5,71.2 21.9,71.2 21.9,71.8 22.5,71.8 	"/>
	<text transform="matrix(1 0 0 1 25.4116 44.292)" class="st2 st3 st4">Title</text>
	<rect x="26.3" y="49" class="st2" width="63.5" height="2.5"/>
	<rect x="26.3" y="53.5" class="st2" width="63.5" height="2.5"/>
	<rect x="26.3" y="58" class="st2" width="63.5" height="2.5"/>
	<rect x="26.3" y="62.5" class="st2" width="19.8" height="2.5"/>
</g>
</svg>
