<svg xmlns="http://www.w3.org/2000/svg" id="Layer_1" height="512" viewBox="0 0 256 256" width="512"><g><path d="m29.619 194.168c-7.724 0-14.009-6.285-14.009-14.009v-126.892c0-7.724 6.285-14.009 14.009-14.009h196.762c7.724 0 14.009 6.285 14.009 14.009v126.892c0 7.724-6.285 14.009-14.009 14.009z" fill="#cecece"></path><g><path d="m22.11 180.159v-126.892c0-7.724 6.285-14.009 14.009-14.009h-6.5c-7.724 0-14.009 6.285-14.009 14.009v126.892c0 7.724 6.285 14.009 14.009 14.009h6.5c-7.724 0-14.009-6.285-14.009-14.009z" fill="#afafaf"></path></g><g><path d="m233.89 180.159v-126.892c0-7.724-6.285-14.009-14.009-14.009h6.5c7.724 0 14.009 6.285 14.009 14.009v126.892c0 7.724-6.285 14.009-14.009 14.009h-6.5c7.724 0 14.009-6.285 14.009-14.009z" fill="#e2e2e2"></path></g><path d="m231.769 167.857c0 2.963-2.425 5.388-5.388 5.388h-196.762c-2.963 0-5.388-2.425-5.388-5.388v-114.59c0-2.963 2.425-5.388 5.388-5.388h196.762c2.963 0 5.388 2.425 5.388 5.388z" fill="#63bce7"></path><g><path d="m30.731 167.857v-114.59c0-2.963 2.425-5.388 5.388-5.388h-6.5c-2.963 0-5.388 2.425-5.388 5.388v114.59c0 2.963 2.425 5.388 5.388 5.388h6.5c-2.963 0-5.388-2.425-5.388-5.388z" fill="#6377e7"></path></g><g><path d="m225.269 167.857v-114.59c0-2.963-2.425-5.388-5.388-5.388h6.5c2.963 0 5.388 2.425 5.388 5.388v114.59c0 2.963-2.425 5.388-5.388 5.388h-6.5c2.963 0 5.388-2.425 5.388-5.388z" fill="#63e2e7"></path></g><path d="m88.847 216.884h78.305v9.429h-78.305z" fill="#cecece"></path><g><path d="m88.847 216.884h6.5v9.429h-6.5z" fill="#afafaf"></path></g><path d="m99.983 194.168h56.035v22.716h-56.035z" fill="#9e9e9e"></path><g><path d="m99.983 194.168h6.5v22.716h-6.5z" fill="#707070"></path></g><circle cx="128" cy="183.706" fill="#f8af23" r="4.613"></circle><g><circle cx="207.95" cy="53.761" fill="#f8af23" r="35.046"></circle><g><path d="m207.95 18.715c-1.096 0-2.179.057-3.25.156 17.831 1.641 31.797 16.632 31.797 34.891s-13.965 33.25-31.797 34.891c1.071.098 2.154.156 3.25.156 19.356 0 35.047-15.691 35.047-35.046 0-19.358-15.691-35.048-35.047-35.048z" fill="#f8d323"></path></g><path d="m218.114 38.246-15.81 18.048-5.182-4.186c-2.308-1.862-5.688-1.507-7.552.792-1.867 2.295-1.513 5.666.79 7.529l13.226 10.678 22.618-25.817c1.951-2.227 1.722-5.609-.513-7.554-2.232-1.943-5.629-1.717-7.577.51z" fill="#f46275"></path></g><g fill="#f8af23"><path d="m38 63.906h38v8.665h-38z"></path><path d="m38 85.067h38v8.665h-38z"></path><path d="m38 106.229h38v8.665h-38z"></path><path d="m38 127.391h38v8.665h-38z"></path><path d="m38 148.553h38v8.665h-38z"></path></g><g><circle cx="128" cy="110.562" fill="#f46275" r="44.904"></circle><g fill="#63bce7"><path d="m223.357 188.437c4.827 4.827 4.827 12.654 0 17.482-4.827 4.827-12.654 4.827-17.482 0l-33.227-33.227c-4.827-4.827-4.827-12.654 0-17.482 4.827-4.827 12.654-4.827 17.482 0z"></path><circle cx="128" cy="110.562" r="27.392"></circle></g></g><circle cx="128" cy="100.934" fill="#9e9e9e" r="8.665"></circle><path d="m139.994 128.855h-23.989v-10.937c0-4.594 3.724-8.319 8.319-8.319h7.351c4.594 0 8.319 3.724 8.319 8.319z" fill="#f8af23"></path><g fill="#3f3679"><path d="m128 189.82c3.371 0 6.113-2.742 6.113-6.113s-2.742-6.113-6.113-6.113-6.113 2.742-6.113 6.113 2.742 6.113 6.113 6.113zm0-9.227c1.717 0 3.113 1.396 3.113 3.113s-1.396 3.113-3.113 3.113-3.113-1.396-3.113-3.113 1.396-3.113 3.113-3.113z"></path><path d="m27.323 235.786h-18.003c-.829 0-1.5.671-1.5 1.5s.671 1.5 1.5 1.5h18.003c.829 0 1.5-.671 1.5-1.5s-.671-1.5-1.5-1.5z"></path><path d="m246.68 235.786h-18.003c-.829 0-1.5.671-1.5 1.5s.671 1.5 1.5 1.5h18.003c.829 0 1.5-.671 1.5-1.5s-.671-1.5-1.5-1.5z"></path><path d="m218.479 235.786h-180.958c-.829 0-1.5.671-1.5 1.5s.671 1.5 1.5 1.5h180.959c.829 0 1.5-.671 1.5-1.5s-.672-1.5-1.501-1.5z"></path><path d="m9.32 227.813h79.527 78.306 79.527c.829 0 1.5-.671 1.5-1.5s-.671-1.5-1.5-1.5h-78.027v-7.929c0-.829-.671-1.5-1.5-1.5h-9.635v-19.716h35.986l11.312 11.312c2.702 2.703 6.251 4.053 9.801 4.053 3.549 0 7.099-1.351 9.801-4.053 3.121-3.121 4.428-7.37 3.945-11.446 7.684-.974 13.527-7.483 13.527-15.374v-112.66c0-.057-.011-.111-.017-.167 1.686-4.199 2.624-8.777 2.624-13.572 0-20.152-16.395-36.547-36.546-36.547-14.415 0-26.904 8.391-32.849 20.544h-145.483c-8.551 0-15.508 6.957-15.508 15.509v126.892c0 8.552 6.957 15.509 15.508 15.509h68.864v19.716h-9.635c-.829 0-1.5.671-1.5 1.5v7.929h-78.028c-.829 0-1.5.671-1.5 1.5s.671 1.5 1.5 1.5zm212.976-22.955c-4.234 4.234-11.125 4.234-15.36 0l-33.227-33.227c-4.235-4.235-4.235-11.125 0-15.36 2.052-2.051 4.779-3.181 7.681-3.181 2.901 0 5.628 1.13 7.68 3.181l33.227 33.227c2.051 2.052 3.181 4.779 3.181 7.68s-1.13 5.629-3.182 7.68zm-14.346-114.55c8.399 0 16.14-2.855 22.319-7.637v85.186c0 2.144-1.744 3.888-3.888 3.888h-17.595l-17.595-17.595c-5.045-5.046-13.044-5.378-18.483-1.001l-10.863-10.863c17.04-18.166 16.703-46.8-1.034-64.537-8.764-8.765-20.417-13.592-32.812-13.592s-24.048 4.827-32.812 13.592c-18.093 18.093-18.093 47.532 0 65.625 8.764 8.765 20.417 13.591 32.812 13.591 11.893 0 23.095-4.454 31.726-12.557l10.862 10.862c-1.98 2.454-3.06 5.483-3.06 8.681 0 2.823.843 5.513 2.401 7.794h-140.309c-2.144 0-3.888-1.744-3.888-3.888v-114.59c0-2.144 1.744-3.888 3.888-3.888h142.057c-.173 1.438-.272 2.899-.272 4.383 0 20.151 16.394 36.546 36.546 36.546zm-79.95 63.657c-11.594 0-22.493-4.515-30.691-12.712-16.923-16.923-16.923-44.459 0-61.382 8.198-8.198 19.097-12.713 30.691-12.713s22.493 4.515 30.691 12.713c16.923 16.923 16.923 44.459 0 61.382-8.198 8.198-19.097 12.712-30.691 12.712zm110.89 26.194c0 6.467-4.868 11.777-11.213 12.428-.665-1.903-1.741-3.693-3.259-5.211l-12.631-12.631h14.595c3.798 0 6.888-3.09 6.888-6.888v-87.778c2.14-2.06 4.03-4.375 5.621-6.9v106.98zm-30.94-159.945c18.498 0 33.546 15.049 33.546 33.547s-15.049 33.546-33.546 33.546-33.546-15.049-33.546-33.546c0-18.498 15.049-33.547 33.546-33.547zm-190.84 159.945v-126.892c0-6.897 5.611-12.509 12.508-12.509h144.184c-.692 1.81-1.251 3.686-1.649 5.62h-142.534c-3.798 0-6.888 3.09-6.888 6.888v114.59c0 3.798 3.09 6.888 6.888 6.888h142.961l17.923 17.923h-34.486-56.035-70.363c-6.897.001-12.509-5.61-12.509-12.508zm84.372 15.509h53.035v19.716h-53.035zm-11.135 22.716h9.635 56.035 9.635v6.429h-75.305z"></path><path d="m189.417 61.596 13.226 10.678c.277.224.61.333.942.333.418 0 .833-.174 1.129-.512l22.618-25.816c1.208-1.379 1.806-3.145 1.682-4.972-.124-1.828-.954-3.499-2.338-4.703-2.854-2.485-7.201-2.191-9.69.654l-14.86 16.963-4.061-3.28c-2.945-2.377-7.278-1.922-9.658 1.013-1.156 1.42-1.688 3.205-1.497 5.025.189 1.823 1.079 3.462 2.507 4.617zm1.317-7.751c.763-.941 1.881-1.429 3.01-1.429.856 0 1.718.281 2.435.859l5.182 4.186c.626.505 1.54.428 2.071-.179l15.811-18.047c1.402-1.604 3.853-1.769 5.463-.366.778.677 1.245 1.615 1.314 2.642.07 1.026-.266 2.017-.945 2.792l-21.668 24.732-12.104-9.772c-.803-.649-1.304-1.571-1.411-2.595-.106-1.022.192-2.024.842-2.823z"></path><path d="m76 62.406h-38c-.829 0-1.5.671-1.5 1.5v8.665c0 .829.671 1.5 1.5 1.5h38c.829 0 1.5-.671 1.5-1.5v-8.665c0-.829-.671-1.5-1.5-1.5zm-1.5 8.665h-35v-5.665h35z"></path><path d="m76 83.567h-38c-.829 0-1.5.671-1.5 1.5v8.665c0 .829.671 1.5 1.5 1.5h38c.829 0 1.5-.671 1.5-1.5v-8.665c0-.828-.671-1.5-1.5-1.5zm-1.5 8.665h-35v-5.665h35z"></path><path d="m76 104.729h-38c-.829 0-1.5.671-1.5 1.5v8.666c0 .829.671 1.5 1.5 1.5h38c.829 0 1.5-.671 1.5-1.5v-8.666c0-.829-.671-1.5-1.5-1.5zm-1.5 8.666h-35v-5.666h35z"></path><path d="m76 125.891h-38c-.829 0-1.5.671-1.5 1.5v8.665c0 .829.671 1.5 1.5 1.5h38c.829 0 1.5-.671 1.5-1.5v-8.665c0-.828-.671-1.5-1.5-1.5zm-1.5 8.665h-35v-5.665h35z"></path><path d="m76 147.053h-38c-.829 0-1.5.671-1.5 1.5v8.665c0 .829.671 1.5 1.5 1.5h38c.829 0 1.5-.671 1.5-1.5v-8.665c0-.829-.671-1.5-1.5-1.5zm-1.5 8.665h-35v-5.665h35z"></path><path d="m107.571 90.132c-5.457 5.457-8.462 12.712-8.462 20.43 0 7.717 3.005 14.972 8.462 20.429 5.632 5.632 13.031 8.449 20.429 8.449s14.797-2.816 20.429-8.449c5.457-5.457 8.462-12.712 8.462-20.429s-3.005-14.973-8.462-20.43c-11.264-11.264-29.594-11.264-40.858 0zm38.737 38.738c-10.096 10.095-26.521 10.095-36.616 0-4.89-4.891-7.583-11.393-7.583-18.308 0-6.916 2.693-13.418 7.583-18.309 5.048-5.047 11.678-7.571 18.308-7.571s13.26 2.524 18.308 7.571c4.89 4.891 7.583 11.393 7.583 18.309.001 6.916-2.693 13.417-7.583 18.308z"></path><path d="m134.683 108.574c2.129-1.865 3.482-4.595 3.482-7.641 0-5.605-4.56-10.165-10.165-10.165s-10.165 4.56-10.165 10.165c0 3.046 1.353 5.776 3.482 7.641-3.947 1.273-6.812 4.979-6.812 9.344v10.937c0 .829.671 1.5 1.5 1.5h23.989c.829 0 1.5-.671 1.5-1.5v-10.937c.001-4.365-2.864-8.07-6.811-9.344zm-6.683-14.805c3.951 0 7.165 3.214 7.165 7.165s-3.214 7.166-7.165 7.166-7.165-3.214-7.165-7.166c0-3.951 3.214-7.165 7.165-7.165zm10.495 33.586h-20.989v-9.437c0-3.76 3.059-6.819 6.819-6.819h7.352c3.76 0 6.819 3.059 6.819 6.819v9.437z"></path></g></g></svg>