<svg xmlns="http://www.w3.org/2000/svg" id="Capa_1" height="512" viewBox="0 0 511.777 511.777" width="512"><g><g><g><path d="m457.635 41.536h-403.494c-25.759 0-46.641 20.882-46.641 46.641v60.659c0 25.759 20.882 46.641 46.641 46.641h403.495c25.759 0 46.641-20.882 46.641-46.641v-60.659c0-25.759-20.882-46.641-46.642-46.641z" fill="#badafb"></path><path d="m99.796 171.629c-25.759 0-46.641-20.882-46.641-46.641v-60.66c0-8.281 2.167-16.051 5.952-22.792h-4.966c-25.759 0-46.641 20.882-46.641 46.641v60.659c0 25.759 20.882 46.641 46.641 46.641h403.495c17.479 0 32.727-9.641 40.714-23.87z" fill="#97c9f9"></path><g id="XMLID_9_"><g><path d="m422.053 292.254c0-5.32 2.16-10.15 5.65-13.64s8.32-5.65 13.64-5.65c10.66 0 19.3 8.64 19.3 19.29v39.62 51.65c0 7.12-.88 14.19-2.6 21.05s-4.28 13.5-7.63 19.79c-31.33 58.67-114.31 61.69-149.82 5.45l-46.93-74.32c-2.69-4.26-4-9.06-4-13.83 0-6.77 2.65-13.48 7.76-18.5 11.44-11.22 30.21-9.48 39.39 3.64l9.5 13.59v-159.82c0-5.33 2.16-10.15 5.65-13.64s8.32-5.65 13.64-5.65c10.65 0 19.29 8.63 19.29 19.29v81.54c0-10.65 8.64-19.29 19.29-19.29 5.33 0 10.15 2.16 13.64 5.65s5.65 8.32 5.65 13.64v14.32c0-10.65 8.64-19.29 19.29-19.29 5.33 0 10.15 2.16 13.64 5.65s5.65 8.32 5.65 13.64z" fill="#f8f7f8"></path></g><g><path d="m319.67 416.356-46.93-74.32c-2.69-4.26-4-9.06-4-13.83 0-4.213 1.017-8.411 3.024-12.184-5.206.764-10.239 3.119-14.341 7.141-5.11 5.02-7.76 11.73-7.76 18.5 0 4.77 1.31 9.57 4 13.83l46.93 74.32c30.148 47.748 94.507 52.786 132.43 17.314-37.767 19.479-87.826 9.659-113.353-30.771z" fill="#efedee"></path></g><path d="m331.253 166.934c1.185-1.185 2.552-2.214 4.013-3.06-2.84-1.645-6.145-2.59-9.663-2.59-5.32 0-10.15 2.16-13.64 5.65s-5.65 8.31-5.65 13.64v155.68c10.654 0 19.29-8.636 19.29-19.29v-136.39c0-5.33 2.16-10.15 5.65-13.64z" fill="#efedee"></path></g></g></g><g><path d="m283.566 195.478c0-4.142-3.357-7.5-7.5-7.5h-221.925c-21.582 0-39.141-17.559-39.141-39.141v-60.66c0-21.583 17.559-39.141 39.141-39.141h20.703c4.143 0 7.5-3.358 7.5-7.5s-3.357-7.5-7.5-7.5h-20.703c-29.854 0-54.141 24.288-54.141 54.141v60.66c0 29.854 24.287 54.141 54.141 54.141h221.926c4.142 0 7.499-3.358 7.499-7.5z"></path><path d="m457.636 34.036h-350.829c-4.143 0-7.5 3.358-7.5 7.5s3.357 7.5 7.5 7.5h350.829c21.583 0 39.142 17.559 39.142 39.141v60.66c0 21.583-17.559 39.141-39.142 39.141h-84.301c-4.143 0-7.5 3.358-7.5 7.5s3.357 7.5 7.5 7.5h84.301c29.854 0 54.142-24.288 54.142-54.141v-60.66c-.001-29.853-24.289-54.141-54.142-54.141z"></path><path d="m370.949 121.536c2.314 0 4.599-1.069 6.066-3.083 2.44-3.347 1.704-8.039-1.643-10.479-14.823-10.805-32.345-16.516-50.672-16.516-17.061 0-33.575 5.006-47.76 14.478-3.444 2.3-4.372 6.958-2.072 10.402 2.302 3.445 6.959 4.373 10.402 2.072 11.71-7.819 25.345-11.953 39.43-11.953 15.13 0 29.597 4.716 41.836 13.637 1.334.974 2.88 1.442 4.413 1.442z"></path><path d="m324.701 121.459c-11.11 0-21.865 3.26-31.101 9.428-3.444 2.301-4.372 6.958-2.072 10.402 2.301 3.445 6.958 4.372 10.402 2.072 6.762-4.516 14.636-6.902 22.771-6.902 8.735 0 17.092 2.725 24.164 7.881 1.333.972 2.879 1.44 4.412 1.44 2.314 0 4.599-1.068 6.066-3.083 2.44-3.347 1.705-8.039-1.643-10.479-9.655-7.038-21.066-10.759-32.999-10.759z"></path><path d="m123.02 80.697-53.733 57.386-11.104-10.029c-3.071-2.774-7.814-2.537-10.593.538-2.776 3.074-2.536 7.816.538 10.593l16.57 14.967c1.434 1.294 3.231 1.934 5.025 1.934 2.004 0 4.002-.798 5.477-2.374l58.769-62.763c2.831-3.024 2.675-7.77-.349-10.601-3.023-2.831-7.769-2.674-10.6.349z"></path><path d="m141.484 126.007h3.656c4.143 0 7.5-3.358 7.5-7.5s-3.357-7.5-7.5-7.5h-3.656c-4.143 0-7.5 3.358-7.5 7.5s3.358 7.5 7.5 7.5z"></path><path d="m183.329 126.007c4.143 0 7.5-3.358 7.5-7.5s-3.357-7.5-7.5-7.5h-3.656c-4.143 0-7.5 3.358-7.5 7.5s3.357 7.5 7.5 7.5z"></path><path d="m221.518 126.007c4.143 0 7.5-3.358 7.5-7.5s-3.357-7.5-7.5-7.5h-3.656c-4.143 0-7.5 3.358-7.5 7.5s3.357 7.5 7.5 7.5z"></path><path d="m460.639 364.754c-4.143 0-7.5 3.358-7.5 7.5v11.265c0 12.97-3.229 25.874-9.34 37.316-13.439 25.168-38.486 40.813-67 41.851-28.538 1.042-54.63-12.747-69.863-36.873l-11.062-17.52c-2.212-3.502-6.847-4.548-10.346-2.337-3.503 2.212-4.549 6.844-2.338 10.346l11.062 17.519c17.48 27.685 47.01 43.919 79.524 43.919 1.185 0 2.375-.021 3.567-.065 33.912-1.233 63.702-19.841 79.688-49.775 7.267-13.609 11.107-28.956 11.107-44.381v-11.265c.001-4.142-3.357-7.5-7.499-7.5z"></path><path d="m441.348 265.468c-4.677 0-9.077 1.208-12.908 3.324-3.299-11.06-13.557-19.148-25.674-19.148-4.847 0-9.393 1.301-13.32 3.561-3.682-10.403-13.612-17.878-25.261-17.878-4.229 0-8.231.989-11.791 2.741v-57.498c0-14.772-12.019-26.791-26.791-26.791s-26.79 12.018-26.79 26.791v137.076c-5.421-5.253-12.501-8.548-20.157-9.256-9.8-.905-19.454 2.526-26.48 9.421-11.152 10.943-13.193 28.476-4.852 41.688l18.789 29.757c1.427 2.259 3.86 3.497 6.349 3.497 1.369 0 2.755-.375 3.997-1.159 3.503-2.212 4.549-6.844 2.338-10.346l-18.789-29.756c-4.597-7.281-3.473-16.942 2.674-22.973 3.871-3.799 9.185-5.694 14.593-5.192 5.4.5 10.281 3.336 13.391 7.781l9.503 13.585c1.876 2.683 5.274 3.84 8.399 2.854 3.122-.984 5.246-3.879 5.246-7.153v-159.824c0-6.501 5.289-11.791 11.791-11.791 6.501 0 11.79 5.289 11.79 11.791v108.766c0 4.142 3.357 7.5 7.5 7.5s7.5-3.358 7.5-7.5v-27.219c0-6.501 5.289-11.791 11.791-11.791s11.791 5.289 11.791 11.791v27.559c0 4.142 3.357 7.5 7.5 7.5s7.5-3.358 7.5-7.5v-13.242c0-6.501 5.289-11.791 11.79-11.791 6.502 0 11.791 5.289 11.791 11.791v27.559c0 4.142 3.357 7.5 7.5 7.5s7.5-3.358 7.5-7.5v-11.734c0-6.501 5.289-11.791 11.791-11.791s11.791 5.29 11.791 11.791v47.964c0 4.142 3.357 7.5 7.5 7.5s7.5-3.358 7.5-7.5v-47.964c-.001-14.773-12.02-26.791-26.792-26.791z"></path></g></g></svg>