<?xml version="1.0" encoding="utf-8"?>
<!-- Generator: Adobe Illustrator 19.1.0, SVG Export Plug-In . SVG Version: 6.00 Build 0)  -->
<svg version="1.1" id="Layer_1" xmlns="http://www.w3.org/2000/svg" xmlns:xlink="http://www.w3.org/1999/xlink" x="0px" y="0px"
	 viewBox="0 0 130 112" style="enable-background:new 0 0 130 112;" xml:space="preserve">
<style type="text/css">
	.st0{fill:#CCCCCC;}
	.st1{fill:#F15A24;}
	.st2{fill:#B3B3B3;}
	.st3{fill:none;stroke:#B3B3B3;stroke-width:1.0364;stroke-miterlimit:10;}
</style>
<g>
	<g>
		<polygon class="st0" points="113,27.3 113,26.7 22.4,26.7 22.4,6.4 112.4,6.4 112.4,27.3 113,27.3 113,26.7 113,27.3 113.5,27.3 
			113.5,5.2 21.3,5.2 21.3,27.9 113.5,27.9 113.5,27.3 		"/>
		<polygon class="st0" points="113,106.2 113,105.6 22.4,105.6 22.4,91.1 112.4,91.1 112.4,106.2 113,106.2 113,105.6 113,106.2 
			113.5,106.2 113.5,90 21.3,90 21.3,106.8 113.5,106.8 113.5,106.2 		"/>
		<polygon class="st0" points="97.9,87.6 98.5,87.6 98.5,30.8 112.4,30.8 112.4,87.1 97.9,87.1 97.9,87.6 98.5,87.6 97.9,87.6 
			97.9,88.2 113.5,88.2 113.5,29.6 97.3,29.6 97.3,88.2 97.9,88.2 		"/>
		<polygon class="st1" points="21.8,87.8 21.8,88.4 95.5,88.4 95.5,29.6 21.3,29.6 21.3,88.4 21.8,88.4 21.8,87.8 22.4,87.8 
			22.4,30.8 94.4,30.8 94.4,87.2 21.8,87.2 21.8,87.8 22.4,87.8 		"/>
		<rect x="47.3" y="37.5" class="st2" width="41.3" height="2.4"/>
		<rect x="47.3" y="42" class="st2" width="41.3" height="2.4"/>
		<rect x="47.3" y="46.5" class="st2" width="41.3" height="2.4"/>
		<rect x="47.3" y="51" class="st2" width="41.3" height="2.4"/>
		<rect x="28.2" y="55.6" class="st2" width="60.3" height="2.4"/>
		<rect x="28.2" y="59.8" class="st2" width="60.3" height="2.4"/>
		<rect x="28.2" y="64" class="st2" width="60.3" height="2.4"/>
		<rect x="28.2" y="68.4" class="st2" width="60.3" height="2.4"/>
		<rect x="28.2" y="72.7" class="st2" width="60.3" height="2.4"/>
		<rect x="28.2" y="76.9" class="st2" width="27.3" height="2.4"/>
		<rect x="28.7" y="37.6" class="st3" width="15.2" height="15.2"/>
		<g>
			<path class="st2" d="M28.8,52.8c0,0-0.1-0.2,0-1.2c0.9-0.4,5-1.5,5.2-1.7l0-0.8l0.3-0.1c0,0,0.1-1.2,0.1-1.4c0,0-0.5-1-0.6-1.5
				c0,0-0.4,0-0.4-0.4c-0.1-0.4,0-0.7-0.1-1c-0.1-0.3,0.2-0.6,0.4-0.6c0,0-0.4-2.2,0-2.8c0.3-0.4,1.2-1.5,3.3-1.9c0,0,0.5-0.1,0.7,0
				c0.1,0,0.1,0.1-0.1,0.4c0,0,1.1,0.7,1.5,1.8c0.2,0.7,0.1,2.1,0,2.5c0,0,0.3-0.1,0.3,0.3c-0.1,0.7-0.1,1.9-0.6,1.6
				c0,0,0,1.4-0.4,1.6c0,0-0.1,1.1,0.1,1.1h0.3c0,0,0.1,0.9,0.3,1.1c0,0,4.5,1.2,5,1.7c0,0.5,0,1.1,0,1.1H28.8z"/>
		</g>
	</g>
</g>
</svg>
