<?xml version="1.0" encoding="utf-8"?>
<!-- Generator: Adobe Illustrator 19.1.0, SVG Export Plug-In . SVG Version: 6.00 Build 0)  -->
<svg version="1.1" id="Layer_1" xmlns="http://www.w3.org/2000/svg" xmlns:xlink="http://www.w3.org/1999/xlink" x="0px" y="0px"
	 viewBox="0 0 130 112" style="enable-background:new 0 0 130 112;" xml:space="preserve">
<style type="text/css">
	.st0{fill:#F15A24;}
	.st1{fill:#CCCCCC;}
	.st2{fill:#FFFFFF;}
</style>
<g>
	<polygon class="st0" points="113.7,27 113.7,26.4 23.2,26.4 23.2,6.1 113.1,6.1 113.1,27 113.7,27 113.7,26.4 113.7,27 114.3,27 
		114.3,4.9 22,4.9 22,27.5 114.3,27.5 114.3,27 	"/>
	<polygon class="st1" points="113.7,105.9 113.7,105.3 23.2,105.3 23.2,90.8 113.1,90.8 113.1,105.9 113.7,105.9 113.7,105.3 
		113.7,105.9 114.3,105.9 114.3,89.6 22,89.6 22,106.5 114.3,106.5 114.3,105.9 	"/>
	<polygon class="st1" points="98.6,87.3 99.2,87.3 99.2,30.4 113.1,30.4 113.1,86.7 98.6,86.7 98.6,87.3 99.2,87.3 98.6,87.3 
		98.6,87.9 114.3,87.9 114.3,29.3 98,29.3 98,87.9 98.6,87.9 	"/>
	<polygon class="st1" points="22.6,87.5 22.6,88 96.3,88 96.3,29.3 22,29.3 22,88 22.6,88 22.6,87.5 23.2,87.5 23.2,30.4 95.1,30.4 
		95.1,86.9 22.6,86.9 22.6,87.5 23.2,87.5 	"/>
	<polygon class="st0" points="87.5,22 60.8,22 60.8,15.3 87.5,15.3 90.4,18.8 	"/>
	<g>
		<polygon class="st1" points="36.2,22.7 36.2,14.6 63.9,14.6 67.5,18.8 63.9,22.7 		"/>
		<path class="st2" d="M63.5,15.3l3,3.5l-3,3.2H36.9v-6.7H63.5 M64.2,13.8h-0.7H36.9h-1.5v1.5V22v1.5h1.5h26.6h0.6l0.4-0.5l3-3.2
			l0.9-1l-0.9-1l-3-3.5L64.2,13.8L64.2,13.8z"/>
	</g>
	<g>
		<polygon class="st1" points="27.3,22.7 27.3,14.6 48.1,14.6 51.7,18.8 48.1,22.7 		"/>
		<path class="st2" d="M47.8,15.3l3,3.5l-3,3.2H28v-6.7H47.8 M48.4,13.8h-0.7H28h-1.5v1.5V22v1.5H28h19.8h0.6l0.4-0.5l3-3.2l0.9-1
			l-0.9-1l-3-3.5L48.4,13.8L48.4,13.8z"/>
	</g>
</g>
</svg>
