<?xml version="1.0" encoding="utf-8"?>
<!-- Generator: Adobe Illustrator 19.1.0, SVG Export Plug-In . SVG Version: 6.00 Build 0)  -->
<svg version="1.1" id="Layer_1" xmlns="http://www.w3.org/2000/svg" xmlns:xlink="http://www.w3.org/1999/xlink" x="0px" y="0px"
	 viewBox="0 0 130 112" style="enable-background:new 0 0 130 112;" xml:space="preserve">
<style type="text/css">
	.st0{fill:#CCCCCC;}
	.st1{fill:#F15A24;}
	.st2{fill:none;stroke:#B3B3B3;stroke-width:2;stroke-miterlimit:10;}
	.st3{fill:none;stroke:#F15A24;stroke-width:2;stroke-miterlimit:10;}
</style>
<g>
	<polygon class="st0" points="112.7,26.6 112.7,26 22.2,26 22.2,5.7 112.1,5.7 112.1,26.6 112.7,26.6 112.7,26 112.7,26.6 
		113.3,26.6 113.3,4.6 21,4.6 21,27.2 113.3,27.2 113.3,26.6 	"/>
	<polygon class="st1" points="112.7,105.6 112.7,105 22.2,105 22.2,90.5 112.1,90.5 112.1,105.6 112.7,105.6 112.7,105 112.7,105.6 
		113.3,105.6 113.3,89.3 21,89.3 21,106.1 113.3,106.1 113.3,105.6 	"/>
	<polygon class="st0" points="97.6,87 98.2,87 98.2,30.1 112.1,30.1 112.1,86.4 97.6,86.4 97.6,87 98.2,87 97.6,87 97.6,87.6 
		113.3,87.6 113.3,28.9 97,28.9 97,87.6 97.6,87.6 	"/>
	<polygon class="st0" points="21.6,87.1 21.6,87.7 95.3,87.7 95.3,28.9 21,28.9 21,87.7 21.6,87.7 21.6,87.1 22.2,87.1 22.2,30.1 
		94.1,30.1 94.1,86.6 21.6,86.6 21.6,87.1 22.2,87.1 	"/>
	<line class="st2" x1="32" y1="98.2" x2="47.4" y2="98.2"/>
	<line class="st3" x1="51.5" y1="98.2" x2="64.5" y2="98.2"/>
	<line class="st3" x1="68.5" y1="98.2" x2="82.3" y2="98.2"/>
	<line class="st3" x1="86.4" y1="98.2" x2="101" y2="98.2"/>
</g>
</svg>
