<?xml version="1.0" encoding="utf-8"?>
<!-- Generator: Adobe Illustrator 19.1.0, SVG Export Plug-In . SVG Version: 6.00 Build 0)  -->
<svg version="1.1" id="Layer_1" xmlns="http://www.w3.org/2000/svg" xmlns:xlink="http://www.w3.org/1999/xlink" x="0px" y="0px"
	 viewBox="0 0 130 112" style="enable-background:new 0 0 130 112;" xml:space="preserve">
<style type="text/css">
	.st0{fill:#F15A24;}
	.st1{fill:#CCCCCC;}
	.st2{fill:#B3B3B3;}
	.st3{fill:#F2F2F2;stroke:#B3B3B3;stroke-width:0.5446;stroke-miterlimit:10;}
	.st4{fill:none;}
	.st5{fill:#FFFFFF;}
	.st6{font-family:'OpenSans-Extrabold';}
	.st7{font-size:9.1515px;}
</style>
<g>
	<g>
		<g>
			<polygon class="st0" points="112.8,38.8 112.8,38.3 22.3,38.3 22.3,5.9 112.3,5.9 112.3,38.8 112.8,38.8 112.8,38.3 112.8,38.8 
				113.4,38.8 113.4,4.8 21.1,4.8 21.1,39.4 113.4,39.4 113.4,38.8 			"/>
			<polygon class="st1" points="112.8,105.8 112.8,105.2 22.3,105.2 22.3,90.7 112.3,90.7 112.3,105.8 112.8,105.8 112.8,105.2 
				112.8,105.8 113.4,105.8 113.4,89.5 21.1,89.5 21.1,106.3 113.4,106.3 113.4,105.8 			"/>
			<polygon class="st1" points="97.7,87.2 98.3,87.2 98.3,42.3 112.3,42.3 112.3,86.6 97.7,86.6 97.7,87.2 98.3,87.2 97.7,87.2 
				97.7,87.8 113.4,87.8 113.4,41.2 97.2,41.2 97.2,87.8 97.7,87.8 			"/>
			<polygon class="st1" points="21.7,87.3 21.7,87.9 95.4,87.9 95.4,41.2 21.1,41.2 21.1,87.9 21.7,87.9 21.7,87.3 22.3,87.3 
				22.3,42.3 94.2,42.3 94.2,86.8 21.7,86.8 21.7,87.3 22.3,87.3 			"/>
		</g>
		<g>
			<rect x="25.6" y="23.5" class="st2" width="37.3" height="11"/>
			<rect x="26" y="9.3" class="st3" width="82.4" height="12.4"/>
			<rect x="27.8" y="25" class="st4" width="35.6" height="8.8"/>
			<text transform="matrix(1 0 0 1 27.8227 31.9827)" class="st5 st6 st7">Search</text>
		</g>
	</g>
</g>
</svg>
