<?xml version="1.0" encoding="utf-8"?>
<!-- Generator: Adobe Illustrator 19.1.0, SVG Export Plug-In . SVG Version: 6.00 Build 0)  -->
<svg version="1.1" id="Layer_1" xmlns="http://www.w3.org/2000/svg" xmlns:xlink="http://www.w3.org/1999/xlink" x="0px" y="0px"
	 viewBox="0 0 130 112" style="enable-background:new 0 0 130 112;" xml:space="preserve">
<style type="text/css">
	.st0{fill:#F15A24;}
	.st1{fill:#CCCCCC;}
	.st2{fill:#B3B3B3;}
</style>
<g>
	<g>
		<polygon class="st0" points="112.6,32.5 112.6,31.9 22.1,31.9 22.1,5.6 112,5.6 112,32.5 112.6,32.5 112.6,31.9 112.6,32.5 
			113.2,32.5 113.2,4.4 20.9,4.4 20.9,33.1 113.2,33.1 113.2,32.5 		"/>
		<polygon class="st1" points="112.6,105.4 112.6,104.8 22,104.8 22,90.3 112,90.3 112,105.4 112.6,105.4 112.6,104.8 112.6,105.4 
			113.2,105.4 113.2,89.1 20.9,89.1 20.9,106 113.2,106 113.2,105.4 		"/>
		<polygon class="st1" points="97.5,86.8 98.1,86.8 98.1,36 112,36 112,86.2 97.5,86.2 97.5,86.8 98.1,86.8 97.5,86.8 97.5,87.4 
			113.2,87.4 113.2,34.8 96.9,34.8 96.9,87.4 97.5,87.4 		"/>
		<polygon class="st1" points="21.5,87 21.5,87.6 95.2,87.6 95.2,34.8 20.9,34.8 20.9,87.6 21.5,87.6 21.5,87 22,87 22,36 94,36 
			94,86.4 21.5,86.4 21.5,87 22,87 		"/>
	</g>
	<g>
		<g>
			<path class="st2" d="M30,19.1h-1.8V12h-2.3v-1.5h6.5V12H30V19.1z"/>
			<path class="st2" d="M33.4,10.8c0-0.6,0.3-0.9,1-0.9c0.7,0,1,0.3,1,0.9c0,0.3-0.1,0.5-0.2,0.6c-0.1,0.1-0.4,0.2-0.7,0.2
				C33.7,11.7,33.4,11.4,33.4,10.8z M35.2,19.1h-1.8v-6.6h1.8V19.1z"/>
			<path class="st2" d="M39.7,17.7c0.3,0,0.7-0.1,1.1-0.2v1.3c-0.4,0.2-1,0.3-1.6,0.3c-0.7,0-1.2-0.2-1.6-0.5s-0.5-0.9-0.5-1.6v-3.2
				h-0.9V13l1-0.6l0.5-1.4H39v1.4h1.8v1.3H39V17c0,0.3,0.1,0.4,0.2,0.6S39.5,17.7,39.7,17.7z"/>
			<path class="st2" d="M43.8,19.1H42V10h1.8V19.1z"/>
			<path class="st2" d="M48.6,19.2c-1.1,0-1.9-0.3-2.5-0.9s-0.9-1.4-0.9-2.5s0.3-1.9,0.8-2.5s1.3-0.9,2.3-0.9c0.9,0,1.6,0.3,2.2,0.8
				s0.8,1.3,0.8,2.2v0.9H47c0,0.5,0.2,0.9,0.5,1.2s0.7,0.4,1.2,0.4c0.4,0,0.8,0,1.1-0.1s0.7-0.2,1.1-0.4v1.4c-0.3,0.2-0.6,0.3-1,0.3
				S49.1,19.2,48.6,19.2z M48.3,13.6c-0.4,0-0.7,0.1-0.9,0.4s-0.3,0.6-0.4,1h2.5c0-0.4-0.1-0.8-0.3-1S48.7,13.6,48.3,13.6z"/>
		</g>
		<rect x="26.6" y="23.8" class="st2" width="60.5" height="2.5"/>
	</g>
</g>
</svg>
