<?xml version="1.0" encoding="utf-8"?>
<!-- Generator: Adobe Illustrator 18.1.1, SVG Export Plug-In . SVG Version: 6.00 Build 0)  -->
<svg version="1.1" id="Layer_1" xmlns="http://www.w3.org/2000/svg" xmlns:xlink="http://www.w3.org/1999/xlink" x="0px" y="0px"
	 width="130px" height="117px" viewBox="5 18 130 110" enable-background="new 0 0 130 130" xml:space="preserve">
<g>
	<g>
		<g>
			<polygon fill="#CCCCCC" points="116.6,44.6 116.6,44 26.1,44 26.1,23.7 116,23.7 116,44.6 116.6,44.6 116.6,44 116.6,44.6 
				117.2,44.6 117.2,22.5 24.9,22.5 24.9,45.2 117.2,45.2 117.2,44.6 			"/>
			<polygon fill="#CCCCCC" points="116.6,123.5 116.6,122.9 26.1,122.9 26.1,108.4 116,108.4 116,123.5 116.6,123.5 116.6,122.9 
				116.6,123.5 117.2,123.5 117.2,107.3 24.9,107.3 24.9,124.1 117.2,124.1 117.2,123.5 			"/>
			<polygon fill="#CCCCCC" points="101.5,104.9 102.1,104.9 102.1,48.1 116,48.1 116,104.4 101.5,104.4 101.5,104.9 102.1,104.9 
				101.5,104.9 101.5,105.5 117.2,105.5 117.2,46.9 100.9,46.9 100.9,105.5 101.5,105.5 			"/>
			<polygon fill="#F15A24" points="25.5,105.1 25.5,105.7 99.2,105.7 99.2,46.9 24.9,46.9 24.9,105.7 25.5,105.7 25.5,105.1 
				26.1,105.1 26.1,48.1 98,48.1 98,104.5 25.5,104.5 25.5,105.1 26.1,105.1 			"/>
			<rect x="29.9" y="75.3" fill="#B3B3B3" width="63.5" height="2.5"/>
			<rect x="29.9" y="79.8" fill="#B3B3B3" width="63.5" height="2.5"/>
			<rect x="29.9" y="84.3" fill="#B3B3B3" width="63.5" height="2.5"/>
			<rect x="29.9" y="88.8" fill="#B3B3B3" width="63.5" height="2.5"/>
			<rect x="29.9" y="93.3" fill="#B3B3B3" width="63.5" height="2.5"/>
			<rect x="29.9" y="97.8" fill="#B3B3B3" width="19.8" height="2.5"/>
		</g>
	</g>
	<g id="young_man_1_">
		<path fill="#F15A24" d="M67,58.2c-0.1-0.1-0.2-0.2-0.3-0.3c0-0.8,0-1.2,0-1.8c-0.2-1.7-2-3-4.1-3c-2.1,0-3.9,1.3-4.1,3
			c-0.1,0.6-0.1,0.9,0,1.8c-0.1,0.1-0.2,0.2-0.3,0.3c-0.2,0.3-0.2,0.8,0,1.3c0.2,0.6,0.5,1,0.8,1.2c0.5,1.7,1.9,2.9,3.6,2.9
			c1.7,0,3.2-1.2,3.6-2.9c0.3-0.2,0.6-0.6,0.8-1.2C67.2,59,67.2,58.5,67,58.2z M65.7,57.9c0,0.4-0.3,1.9-0.5,2.5
			c-0.3,1.3-1.4,2.2-2.7,2.2c-1.3,0-2.4-0.9-2.7-2.2c-0.1-0.5-0.4-2-0.5-2.5c0-0.8,0-1.1,0-1.6c0.2-1.2,1.5-2.2,3.1-2.2
			s3,0.9,3.1,2.2C65.8,56.8,65.8,57,65.7,57.9z"/>
		<path fill="#F15A24" d="M66.2,58c0-0.8,0-1.2,0-1.8c-0.2-1.6-1.9-2.6-3.6-2.6l0,0c-1.7,0-3.4,1-3.6,2.6c-0.1,0.6-0.1,0.6,0,1.4
			c4.4,0,5.1-1.1,5.8-1.1C64.8,56.5,64.8,58,66.2,58z"/>
		<path fill="#F15A24" d="M66.6,63.9c1.5,0.4,2.8,1,3.3,1.8c0.7,1.2,0.7,1.8,0.7,1.8c0,0.6-3.6,2.1-8,2.1c-4.4,0-8-1.5-8-2.1
			c0,0,0-0.6,0.7-1.8c0.5-0.8,1.8-1.5,3.3-1.8C58.6,63.9,62.2,66.6,66.6,63.9z"/>
	</g>
	<g id="agreement">
		<g id="pencil_3_">
			<path fill="#F15A24" d="M82.7,67.1c0.2,0.2,0.1,0.4-0.3,0.6l-2.6,1c-0.4,0.1-0.6-0.1-0.5-0.4l0.4-2.8c0.1-0.4,0.3-0.6,0.5-0.4
				L82.7,67.1z"/>
			<path fill="#F15A24" d="M85.1,65.6l4.5-5.6l1-1.2L89,57.5l-0.8-0.7l-1.6-1.2l-1,1.2l-4.5,5.6c-0.4,0.8-0.2,1.8,0.6,2.4l0.8,0.7
				C83.3,66.1,84.4,66.1,85.1,65.6z"/>
			<path fill="#F15A24" d="M87.3,54.8l1,0.8l2,1.6l1,0.8l0.9-1.2c0.4-0.5,0.4-1.4-0.2-1.8l-2-1.6c-0.6-0.4-1.4-0.4-1.8,0.2
				L87.3,54.8z"/>
		</g>
	</g>
	<path fill="#F15A24" d="M45.4,55.9h-2.6v-1.3c0-0.6-0.5-1-1-1s-1,0.5-1,1v1.3h-4.6v-1.3c0-0.6-0.5-1-1-1c-0.6,0-1,0.5-1,1v1.3h-2.6
		c-0.4,0-0.8,0.3-0.8,0.8v11.2c0,0.4,0.3,0.8,0.8,0.8h13.9c0.4,0,0.8-0.3,0.8-0.8V56.7C46.2,56.3,45.8,55.9,45.4,55.9z M37.9,59.4
		v2.1h-2.5v-2.1H37.9z M39,59.4h2.5v2.1H39V59.4z M34.4,59.4v2.1h-2.2v-2.1H34.4z M34.4,62.5V64h-2.2v-1.5H34.4z M35.5,62.5h2.5V64
		h-2.5V62.5z M37.9,65.1v2.1h-2.5v-2.1H37.9z M39,65.1h2.5v2.1H39V65.1z M39,64v-1.5h2.5V64H39z M42.4,62.5h2.2V64h-2.2V62.5z
		 M42.4,61.4v-2.1h2.2v2.1H42.4z M32.3,65.1h2.2v2.1h-2.2V65.1z M42.4,67.1v-2.1h2.2v2.1H42.4z"/>
</g>
</svg>
