<?xml version="1.0" encoding="utf-8"?>
<svg version="1.1" x="0px" y="0px" viewBox="0 0 512 512" xmlns="http://www.w3.org/2000/svg">
    <g>
      <path d="M502,0H343.13c-4.045,0-7.691,2.437-9.239,6.173c-1.547,3.737-0.691,8.038,2.168,10.898l37.42,37.42L247.533,180.437 L131.215,64.119c-3.906-3.904-10.236-3.904-14.143,0L2.955,178.236c-3.905,3.905-3.905,10.237,0,14.143 c1.953,1.952,4.512,2.929,7.071,2.929s5.118-0.977,7.071-2.929L124.144,85.333l139.309,139.309 c1.953,1.952,4.512,2.929,7.071,2.929s5.118-0.977,7.071-2.929c3.905-3.905,3.905-10.237,0-14.143l-15.919-15.919L387.621,68.634 l55.839,55.839L341.967,225.967c-3.905,3.905-3.905,10.237,0,14.143c1.953,1.952,4.512,2.929,7.071,2.929s5.118-0.977,7.071-2.929 l101.493-101.494l37.326,37.326c1.913,1.913,4.471,2.929,7.073,2.929c1.288,0,2.588-0.249,3.825-0.761 c3.736-1.548,6.173-5.194,6.173-9.239V10C512,4.478,507.522,0,502,0z M492,144.728L367.272,20H492V144.728z" style="fill: rgb(255, 255, 255);"/>
    </g>
    <g>
      <path d="M331.359,250.72c-1.859-1.87-4.439-2.93-7.069-2.93s-5.21,1.06-7.07,2.93c-1.87,1.86-2.93,4.44-2.93,7.07 s1.06,5.21,2.93,7.069c1.86,1.86,4.44,2.931,7.07,2.931s5.21-1.07,7.069-2.931c1.86-1.859,2.931-4.439,2.931-7.069 S333.22,252.58,331.359,250.72z" style="fill: rgb(255, 255, 255);"/>
    </g>
    <g>
      <path d="M192.487,265.355l-54.202-54.201l16.139-16.139c3.906-3.905,3.906-10.237,0.001-14.142 c-3.906-3.904-10.236-3.904-14.143,0L2.951,318.204c-3.905,3.905-3.905,10.237,0,14.143c1.953,1.952,4.512,2.929,7.071,2.929 c2.559,0,5.118-0.977,7.071-2.929l107.05-107.05l54.202,54.201c1.953,1.952,4.512,2.929,7.071,2.929s5.118-0.977,7.071-2.929 C196.392,275.593,196.392,269.261,192.487,265.355z" style="fill: rgb(255, 255, 255);"/>
    </g>
    <g>
      <path d="M256.467,366.902L256,366.901c-5.522,0-10,4.478-10,10c0,5.522,4.478,10,10,10l0.319,0.001c0.025,0,0.051,0,0.076,0 c5.487,0,9.957-4.429,9.998-9.926C266.434,371.454,261.99,366.943,256.467,366.902z" style="fill: rgb(255, 255, 255);"/>
    </g>
    <g>
      <path d="M502,492h-17.54v-44.813c0-4.592-3.127-8.594-7.583-9.703l-46.479-11.58L413.736,385.7l24.674-41.047 c2.366-3.936,1.748-8.977-1.499-12.224l-38.754-38.754c-3.248-3.247-8.289-3.864-12.224-1.499l-41.048,24.674l-40.203-16.661 l-11.58-46.479c-1.109-4.456-5.111-7.583-9.703-7.583H228.6c-4.592,0-8.594,3.127-9.703,7.583l-11.58,46.479l-40.203,16.661 l-41.048-24.674c-3.936-2.367-8.976-1.748-12.224,1.499L75.089,332.43c-3.247,3.247-3.865,8.288-1.499,12.224L98.264,385.7 l-16.661,40.204l-46.479,11.58c-4.456,1.109-7.583,5.111-7.583,9.703V492H10c-5.522,0-10,4.478-10,10c0,5.522,4.478,10,10,10h492 c5.522,0,10-4.478,10-10C512,496.478,507.522,492,502,492z M464.458,492h-102.2c5.554-33.969-5.425-68.867-30.116-93.559 c-10.827-10.827-23.519-19.062-37.72-24.477c-5.16-1.968-10.938,0.62-12.906,5.781c-1.968,5.16,0.621,10.938,5.781,12.906 c11.551,4.404,21.882,11.11,30.703,19.932c20.887,20.888,29.724,50.749,23.931,79.416h-171.87 c-5.792-28.668,3.045-58.529,23.933-79.416c8.908-8.908,19.35-15.656,31.035-20.058c5.169-1.946,7.78-7.715,5.834-12.883 c-1.947-5.168-7.715-7.778-12.883-5.834c-14.366,5.411-27.195,13.698-38.129,24.632c-24.69,24.691-35.67,59.588-30.116,93.559 H47.54v-36.997l43.788-10.909c3.077-0.767,5.607-2.946,6.821-5.875l20.521-49.52c1.214-2.93,0.967-6.262-0.668-8.98 l-23.246-38.671l27.703-27.703l38.672,23.246c2.718,1.635,6.053,1.883,8.98,0.668l49.519-20.521 c2.929-1.214,5.109-3.744,5.875-6.821l10.909-43.788h39.17l10.909,43.788c0.766,3.077,2.946,5.607,5.875,6.821l49.519,20.521 c2.929,1.215,6.263,0.968,8.98-0.668l38.672-23.246l27.703,27.703l-23.246,38.671c-1.635,2.719-1.882,6.051-0.668,8.98 l20.521,49.52c1.214,2.929,3.744,5.108,6.821,5.875l43.788,10.909V492z" style="fill: rgb(255, 255, 255);"/>
    </g>
</svg>