<?xml version="1.0" encoding="utf-8"?>
<!-- Generator: Adobe Illustrator 21.1.0, SVG Export Plug-In . SVG Version: 6.00 Build 0)  -->
<svg version="1.1" id="Layer_1" xmlns="http://www.w3.org/2000/svg" xmlns:xlink="http://www.w3.org/1999/xlink" x="0px" y="0px"
	 viewBox="0 0 130 130" style="enable-background:new 0 0 130 130;" xml:space="preserve">
<g>
	<rect x="28.7" y="90" style="fill:#B3B3B3;" width="60" height="10"/>
	<polygon style="fill:#CCCCCC;" points="113.1,44 113.1,43.4 22.6,43.4 22.6,23.1 112.5,23.1 112.5,44 113.1,44 113.1,43.4 
		113.1,44 113.7,44 113.7,21.9 21.4,21.9 21.4,44.5 113.7,44.5 113.7,44 	"/>
	<polygon style="fill:#CCCCCC;" points="113.1,122.9 113.1,122.3 22.5,122.3 22.5,107.8 112.5,107.8 112.5,122.9 113.1,122.9 
		113.1,122.3 113.1,122.9 113.7,122.9 113.7,106.6 21.4,106.6 21.4,123.5 113.7,123.5 113.7,122.9 	"/>
	<polygon style="fill:#CCCCCC;" points="98,104.3 98.6,104.3 98.6,47.4 112.5,47.4 112.5,103.7 98,103.7 98,104.3 98.6,104.3 
		98,104.3 98,104.9 113.7,104.9 113.7,46.3 97.4,46.3 97.4,104.9 98,104.9 	"/>
	<polygon style="fill:#F15A24;" points="22,104.5 22,105.1 95.7,105.1 95.7,46.3 21.4,46.3 21.4,105.1 22,105.1 22,104.5 
		22.5,104.5 22.5,47.4 94.5,47.4 94.5,103.9 22,103.9 22,104.5 22.5,104.5 	"/>
	<rect x="29.4" y="58" style="fill:#F2F2F2;stroke:#B3B3B3;stroke-miterlimit:10;" width="18.6" height="8"/>
	<g>
		<path style="fill:#FFFFFF;" d="M48,96.7c0,0.6-0.2,1-0.6,1.3c-0.4,0.3-1,0.5-1.7,0.5s-1.2-0.1-1.8-0.4v-1.2
			c0.4,0.2,0.8,0.3,1.1,0.4s0.6,0.1,0.8,0.1c0.3,0,0.5-0.1,0.7-0.2s0.2-0.3,0.2-0.5c0-0.1,0-0.2-0.1-0.3c-0.1-0.1-0.2-0.2-0.3-0.3
			c-0.1-0.1-0.4-0.2-0.8-0.4c-0.4-0.2-0.7-0.3-0.9-0.5s-0.3-0.4-0.5-0.6c-0.1-0.2-0.2-0.5-0.2-0.8c0-0.5,0.2-1,0.6-1.3
			c0.4-0.3,0.9-0.5,1.5-0.5c0.3,0,0.6,0,0.9,0.1s0.6,0.2,0.9,0.3l-0.4,1c-0.3-0.1-0.6-0.2-0.8-0.3C46.4,93,46.2,93,46,93
			c-0.2,0-0.4,0.1-0.6,0.2c-0.1,0.1-0.2,0.3-0.2,0.5c0,0.1,0,0.2,0.1,0.3c0.1,0.1,0.1,0.2,0.3,0.3c0.1,0.1,0.4,0.2,0.8,0.4
			c0.6,0.3,1,0.6,1.2,0.8C47.9,96,48,96.3,48,96.7z"/>
		<path style="fill:#FFFFFF;" d="M52.3,98.4l-0.2-0.6H52c-0.1,0.2-0.3,0.4-0.6,0.5s-0.5,0.2-0.9,0.2c-0.6,0-1-0.1-1.3-0.4
			s-0.4-0.7-0.4-1.3v-3.1h1.3v2.8c0,0.3,0.1,0.6,0.2,0.8c0.1,0.2,0.3,0.3,0.6,0.3c0.4,0,0.6-0.1,0.8-0.4c0.2-0.2,0.2-0.6,0.2-1.2
			v-2.3h1.3v4.8h-0.9V98.4z"/>
		<path style="fill:#FFFFFF;" d="M57.2,93.6c0.6,0,1,0.2,1.3,0.7c0.3,0.4,0.5,1,0.5,1.8s-0.2,1.4-0.5,1.8s-0.8,0.6-1.3,0.6
			c-0.6,0-1-0.2-1.3-0.6h-0.1l-0.2,0.5h-1v-6.6h1.3v1.5c0,0.2,0,0.5-0.1,0.9h0.1C56.1,93.8,56.6,93.6,57.2,93.6z M56.8,94.6
			c-0.3,0-0.6,0.1-0.7,0.3c-0.1,0.2-0.2,0.5-0.2,1V96c0,0.5,0.1,0.9,0.2,1.1c0.2,0.2,0.4,0.3,0.7,0.3s0.5-0.1,0.6-0.4
			c0.2-0.2,0.2-0.6,0.2-1.1s-0.1-0.8-0.2-1.1C57.3,94.7,57,94.6,56.8,94.6z"/>
		<path style="fill:#FFFFFF;" d="M64.2,98.4h-1.3v-2.7c0-0.3-0.1-0.6-0.2-0.8c-0.1-0.2-0.3-0.3-0.5-0.3c-0.3,0-0.6,0.1-0.7,0.4
			c-0.2,0.2-0.2,0.6-0.2,1.2v2.2H60v-4.7h1l0.2,0.6h0.1c0.1-0.2,0.3-0.4,0.6-0.5c0.2-0.1,0.5-0.2,0.8-0.2c0.7,0,1.2,0.2,1.4,0.7h0.1
			c0.1-0.2,0.3-0.4,0.6-0.5c0.2-0.1,0.5-0.2,0.8-0.2c0.5,0,0.9,0.1,1.2,0.4s0.4,0.7,0.4,1.3v3.1h-1.3v-2.8c0-0.3-0.1-0.6-0.2-0.8
			c-0.1-0.2-0.3-0.3-0.5-0.3c-0.3,0-0.6,0.1-0.7,0.3c-0.2,0.2-0.2,0.6-0.2,1.1L64.2,98.4L64.2,98.4z"/>
		<path style="fill:#FFFFFF;" d="M68.4,92.5c0-0.4,0.2-0.6,0.7-0.6s0.7,0.2,0.7,0.6c0,0.2-0.1,0.4-0.2,0.5s-0.3,0.2-0.5,0.2
			C68.6,93.1,68.4,92.9,68.4,92.5z M69.7,98.4h-1.3v-4.7h1.3V98.4z"/>
		<path style="fill:#FFFFFF;" d="M73,97.5c0.2,0,0.5,0,0.8-0.1v1c-0.3,0.1-0.7,0.2-1.2,0.2s-0.9-0.1-1.1-0.4s-0.4-0.7-0.4-1.2v-2.3
			h-0.6v-0.5l0.7-0.4l0.4-1h0.8v1h1.3v1h-1.3v2.3c0,0.2,0.1,0.3,0.2,0.4C72.7,97.4,72.8,97.5,73,97.5z"/>
	</g>
	<g>
		<rect x="28.9" y="53.9" style="fill:#B3B3B3;" width="10" height="2"/>
	</g>
	<rect x="29.4" y="76.4" style="fill:#F2F2F2;stroke:#B3B3B3;stroke-miterlimit:10;" width="18.6" height="8"/>
	<g>
		<g id="link">
			<path style="fill:#B3B3B3;" d="M53.1,71.4h3.8v-0.9h-3.8V71.4z M51.2,70.9c0-1.1,0.8-1.9,1.9-1.9h1.4v-0.9h-1.4
				c-1.5,0-2.8,1.3-2.8,2.8c0,1.5,1.3,2.8,2.8,2.8h1.4v-0.9h-1.4C52,72.8,51.2,72,51.2,70.9z M56.9,68.1h-1.4V69h1.4
				c1.1,0,1.9,0.8,1.9,1.9c0,1.1-0.8,1.9-1.9,1.9h-1.4v0.9h1.4c1.5,0,2.8-1.3,2.8-2.8C59.7,69.4,58.4,68.1,56.9,68.1z"/>
		</g>
	</g>
	<g>
		<rect x="68.2" y="54" style="fill:#F2F2F2;" width="20.2" height="30.2"/>
		<path style="fill:#B3B3B3;" d="M88.8,84.7H67.7V53.5h21.2V84.7z M68.7,83.7h19.2V54.5H68.7V83.7z"/>
	</g>
	
		<rect x="28.8" y="72.3" transform="matrix(1 -9.946417e-03 9.946417e-03 1 -0.7268 0.3595)" style="fill:#B3B3B3;" width="14" height="2"/>
	<rect x="71" y="57.7" style="fill:#B3B3B3;" width="10" height="2"/>
	<rect x="71" y="61.4" style="fill:#B3B3B3;" width="14" height="2"/>
	
		<rect x="80.1" y="79" transform="matrix(0.7071 -0.7071 0.7071 0.7071 -31.7037 81.9606)" style="fill:#B3B3B3;" width="6" height="0.5"/>
	
		<rect x="83.1" y="80.4" transform="matrix(0.7071 -0.7071 0.7071 0.7071 -32.2727 83.472)" style="fill:#B3B3B3;" width="3.1" height="0.5"/>
	<rect x="48" y="60.7" style="fill:#B3B3B3;" width="7.2" height="1.2"/>
	<rect x="48" y="80.1" style="fill:#B3B3B3;" width="7.2" height="1.2"/>
	<g>
		<rect x="54.5" y="75.4" style="fill:#B3B3B3;" width="1.1" height="5.9"/>
	</g>
	<rect x="54.5" y="60.7" style="fill:#B3B3B3;" width="1.1" height="5.9"/>
	<rect x="61" y="70.3" style="fill:#B3B3B3;" width="7.2" height="1.2"/>
	<g>
		
			<rect x="43.8" y="60.6" transform="matrix(0.7071 0.7071 -0.7071 0.7071 56.823 -12.9643)" style="fill:#B3B3B3;" width="0.5" height="3.1"/>
		
			<rect x="42" y="60.6" transform="matrix(0.7071 -0.7071 0.7071 0.7071 -31.5498 48.0507)" style="fill:#B3B3B3;" width="0.5" height="3.1"/>
	</g>
	<g>
		
			<rect x="44" y="79.1" transform="matrix(0.7071 0.7071 -0.7071 0.7071 69.9533 -7.6636)" style="fill:#B3B3B3;" width="0.5" height="3.1"/>
		
			<rect x="42.1" y="79.1" transform="matrix(0.7071 -0.7071 0.7071 0.7071 -44.5824 53.5871)" style="fill:#B3B3B3;" width="0.5" height="3.1"/>
	</g>
	<g>
		<g>
			<circle style="fill:#FFFFFF;stroke:#F15A24;stroke-miterlimit:10;" cx="22.3" cy="22.5" r="16"/>
		</g>
		<polygon style="fill:#F05A29;" points="27.3,14.8 27.3,11.4 23.8,11.4 23.8,14.8 20.4,14.8 20.4,11.4 16.9,11.4 16.9,14.8 
			13.5,14.8 13.5,32.1 30.7,32.1 30.7,14.8 		"/>
		<g>
			<g id="Layer_1_14_">
				<g>
					<g>
						<g>
							<path style="fill:#FFFFFF;" d="M22.1,18.1c-2.1,0-3.9,0.8-3.9,1.7v1.4c0,1,1.7,1.7,3.9,1.7c2.1,0,3.9-0.8,3.9-1.7v-1.4
								C26,18.8,24.3,18.1,22.1,18.1z"/>
						</g>
					</g>
					<g>
						<g>
							<path style="fill:#FFFFFF;" d="M22.1,23.8c-2,0-3.7-0.7-3.9-1.6c0,0,0,2.3,0,2.3c0,1,1.7,1.7,3.9,1.7c2.1,0,3.9-0.8,3.9-1.7
								c0,0,0-2.3,0-2.3C25.9,23.1,24.2,23.8,22.1,23.8z"/>
						</g>
					</g>
					<path style="fill:#FFFFFF;" d="M26,25.5c-0.1,0.9-1.8,1.6-3.9,1.6s-3.7-0.7-3.9-1.6l0,2.3c0,1,1.7,1.7,3.9,1.7
						c2.1,0,3.9-0.8,3.9-1.7L26,25.5z"/>
				</g>
			</g>
		</g>
	</g>
</g>
</svg>
