<?xml version="1.0" encoding="utf-8"?>
<!-- Generator: Adobe Illustrator 16.0.0, SVG Export Plug-In . SVG Version: 6.00 Build 0)  -->
<!DOCTYPE svg PUBLIC "-//W3C//DTD SVG 1.1//EN" "http://www.w3.org/Graphics/SVG/1.1/DTD/svg11.dtd">
<svg version="1.1" id="ddl-footer-cell" xmlns="http://www.w3.org/2000/svg" xmlns:xlink="http://www.w3.org/1999/xlink" x="0px"
	 y="0px" width="130px" height="117.5px" viewBox="0 0 130 117.5" enable-background="new 0 0 130 117.5" xml:space="preserve">
<g>
	<path fill="#CCCCCC" d="M95.017,37.884v-0.396H35.378V24.126h59.244v13.758H95.017v-0.396V37.884h0.329V23.336H34.654v14.942
		h60.691v-0.395H95.017z M85.077,77.576h0.395V40.187h9.15v37.059h-9.545V77.576h0.395H85.077v0.396h10.269V39.397H84.683v38.575
		h0.395V77.576z"/>
	<path fill="#CCCCCC" d="M59.997,57.763v0.329h23.566V39.397H59.668v18.695h0.329V57.763h0.396V40.187h22.381v17.181H59.997V57.763
		h0.396H59.997z M34.984,57.763v0.329H58.55V39.397H34.654v18.695h0.33V57.763h0.395V40.187H57.76v17.181H34.984V57.763h0.395
		H34.984z M59.997,77.576v0.396h23.566V59.277H59.668v18.694h0.329V77.576h0.396V60.002h22.381v17.18H59.997V77.576h0.396H59.997z
		 M34.984,77.576v0.396H58.55V59.277H34.654v18.694h0.33V77.576h0.395V60.002H57.76v17.18H34.984V77.576h0.395H34.984z"/>
	<polygon fill="#F05A29" points="95.017,93.77 95.017,93.375 35.378,93.375 35.378,80.012 94.622,80.012 94.622,93.77 95.017,93.77 
		95.017,93.375 95.017,93.77 95.346,93.77 95.346,79.222 34.654,79.222 34.654,94.164 95.346,94.164 95.346,93.77 	"/>
</g>
</svg>
