<?xml version="1.0" encoding="utf-8"?>
<!-- Generator: Adobe Illustrator 16.0.0, SVG Export Plug-In . SVG Version: 6.00 Build 0)  -->
<!DOCTYPE svg PUBLIC "-//W3C//DTD SVG 1.1//EN" "http://www.w3.org/Graphics/SVG/1.1/DTD/svg11.dtd">
<svg version="1.1" id="ddl-footer-cell" xmlns="http://www.w3.org/2000/svg" xmlns:xlink="http://www.w3.org/1999/xlink" x="0px"
	 y="0px" width="130px" height="118px" viewBox="0 -0.25 130 118" enable-background="new 0 -0.25 130 118" xml:space="preserve">
<g>
	<path fill="#CCCCCC" d="M110.6,32v-0.6H20V11.1h90V32H110.6v-0.6V32h0.5V9.9H18.9v22.7H111.1V32H110.6z M95.5,92.3h0.6V35.5H110
		v56.3H95.5V92.3h0.6H95.5v0.603h15.6V34.3H94.9V92.9h0.6V92.3z"/>
	<path fill="#CCCCCC" d="M57.4,62.2v0.5h35.8V34.3H56.9v28.4h0.5V62.2H58V35.5h34v26.102H57.4V62.2H58H57.4z M19.4,62.2v0.5h35.8
		V34.3H18.9v28.4h0.5V62.2H20V35.5h34v26.102H19.4V62.2H20H19.4z M57.4,92.3v0.603h35.8V64.5H56.9v28.4h0.5V92.3H58V65.602h34v26.1
		H57.4V92.3H58H57.4z M19.4,92.3v0.603h35.8V64.5H18.9v28.4h0.5V92.3H20V65.602h34v26.1H19.4V92.3H20H19.4z"/>
	<polygon fill="#F05A29" points="110.6,116.9 110.6,116.301 20,116.301 20,96 110,96 110,116.9 110.6,116.9 110.6,116.301 
		110.6,116.9 111.1,116.9 111.1,94.801 18.9,94.801 18.9,117.5 111.1,117.5 111.1,116.9 	"/>
</g>
</svg>
