<?xml version="1.0" encoding="utf-8"?>
<!-- Generator: Adobe Illustrator 16.0.0, SVG Export Plug-In . SVG Version: 6.00 Build 0)  -->
<!DOCTYPE svg PUBLIC "-//W3C//DTD SVG 1.1//EN" "http://www.w3.org/Graphics/SVG/1.1/DTD/svg11.dtd">
<svg version="1.1" id="Layer_1" xmlns="http://www.w3.org/2000/svg" xmlns:xlink="http://www.w3.org/1999/xlink" x="0px" y="0px"
	 width="130px" height="102.5px" viewBox="0 13.75 130 102.5" enable-background="new 0 13.75 130 102.5" xml:space="preserve">
<g id="Layer_2">
	<g>
		<path fill="#F15A24" d="M41.55,34.249V31.25h-3v2.999h-2.999V31.25h-3v2.999h-3v15h15v-15H41.55z M34.222,47.247h-2.75v-6.804
			h2.75V47.247z M42.55,47.247h-7.636v-6.804h7.636V47.247z M42.55,39.733H31.472v-2.915H42.55V39.733z"/>
	</g>
</g>
<g id="ddl-footer-cell">
	<path fill="#CCCCCC" d="M110.6,102.65v-0.601H20v-14.5h90v15.101H110.6v-0.601V102.65h0.5v-16.2H18.9v16.8h92.2v-0.6H110.6z"/>
	<path fill="#CCCCCC" d="M95.5,84.05h0.6v-56.8H110v56.3H95.5V84.05h0.6H95.5v0.601h15.6v-58.6H94.9v58.6h0.6V84.05z"/>
	<path fill="#CCCCCC" d="M57.4,53.95v0.5h35.8v-28.4H56.9v28.4h0.5V53.95H58v-26.7h34v26.101H57.4V53.95H58H57.4z M57.4,84.05v0.601
		h35.8v-28.4H56.9v28.4h0.5V84.05H58V57.351h34v26.1H57.4V84.05H58H57.4z M19.4,84.05v0.601h35.8v-28.4H18.9v28.4h0.5V84.05H20
		V57.351h34v26.1H19.4V84.05H20H19.4z"/>
	<polygon fill="#F15A24" points="19.4,53.95 19.4,54.45 55.2,54.45 55.2,26.05 18.9,26.05 18.9,54.45 19.4,54.45 19.4,53.95 
		20,53.95 20,27.25 54,27.25 54,53.351 19.4,53.351 19.4,53.95 20,53.95 	"/>
</g>
</svg>
