<?xml version="1.0" encoding="utf-8"?>
<!-- Generator: Adobe Illustrator 16.0.0, SVG Export Plug-In . SVG Version: 6.00 Build 0)  -->
<!DOCTYPE svg PUBLIC "-//W3C//DTD SVG 1.1//EN" "http://www.w3.org/Graphics/SVG/1.1/DTD/svg11.dtd">
<svg version="1.1" id="ddl-footer-cell" xmlns="http://www.w3.org/2000/svg" xmlns:xlink="http://www.w3.org/1999/xlink" x="0px"
	 y="0px" width="130px" height="117.5px" viewBox="0 0 130 117.5" enable-background="new 0 0 130 117.5" xml:space="preserve">
<path fill="#CCCCCC" d="M110.6,108.9V108.3H20V93.8h90V108.9H110.6V108.3V108.9h0.5V92.7H18.9v16.8h92.2v-0.6H110.6z"/>
<path fill="#CCCCCC" d="M110.6,30v-0.6H20V9.1h90V30H110.6v-0.6V30h0.5V7.9H18.9v22.7h92.2V30H110.6z M95.5,90.3h0.6V33.5H110v56.3
	H95.5V90.3h0.6H95.5v0.603h15.6V32.3H94.9v58.6h0.6V90.3z"/>
<path fill="#CCCCCC" d="M57.4,60.2v0.5h35.8V32.3H56.9v28.4h0.5V60.2H58V33.5h34v26.101H57.4V60.2H58H57.4z M57.4,90.3v0.603h35.8
	V62.5H56.9v28.4h0.5V90.3H58V63.601h34v26.1H57.4V90.3H58H57.4z M19.4,90.3v0.603h35.8V62.5H18.9v28.4h0.5V90.3H20V63.601h34v26.1
	H19.4V90.3H20H19.4z"/>
<polygon fill="#F15A24" points="19.4,60.2 19.4,60.7 55.2,60.7 55.2,32.3 18.9,32.3 18.9,60.7 19.4,60.7 19.4,60.2 20,60.2 20,33.5 
	54,33.5 54,59.601 19.4,59.601 19.4,60.2 20,60.2 "/>
</svg>
