<?xml version="1.0" encoding="utf-8"?>
<!-- Generator: Adobe Illustrator 16.0.0, SVG Export Plug-In . SVG Version: 6.00 Build 0)  -->
<!DOCTYPE svg PUBLIC "-//W3C//DTD SVG 1.1//EN" "http://www.w3.org/Graphics/SVG/1.1/DTD/svg11.dtd">
<svg version="1.1" id="Layer_1" xmlns="http://www.w3.org/2000/svg" xmlns:xlink="http://www.w3.org/1999/xlink" x="0px" y="0px"
	 width="130px" height="116.5px" viewBox="0 0 130 116.5" enable-background="new 0 0 130 116.5" xml:space="preserve">
<g>
	<polygon fill="#CCCCCC" points="110.562,29.522 110.562,28.942 20.035,28.942 20.035,8.627 109.982,8.627 109.982,29.522 
		110.562,29.522 110.562,28.942 110.562,29.522 111.145,29.522 111.145,7.467 18.873,7.467 18.873,30.103 111.145,30.103 
		111.145,29.522 	"/>
	<polygon fill="#CCCCCC" points="110.562,108.453 110.562,107.873 20.021,107.873 20.021,93.363 109.982,93.363 109.982,108.453 
		110.562,108.453 110.562,107.873 110.562,108.453 111.145,108.453 111.145,92.201 18.858,92.201 18.858,109.033 111.145,109.033 
		111.145,108.453 	"/>
	<polygon fill="#CCCCCC" points="95.473,89.881 96.055,89.881 96.055,33.004 109.982,33.004 109.982,89.301 95.473,89.301 
		95.473,89.881 96.055,89.881 95.473,89.881 95.473,90.461 111.145,90.461 111.145,31.846 94.893,31.846 94.893,90.461 
		95.473,90.461 	"/>
	<polygon fill="#F15A24" points="19.437,90.035 19.437,90.615 93.134,90.615 93.134,31.846 18.855,31.846 18.855,90.615 
		19.437,90.615 19.437,90.035 20.018,90.035 20.018,33.004 91.975,33.004 91.975,89.455 19.437,89.455 19.437,90.035 20.018,90.035 
			"/>
	<g>
		<path fill="#B3B3B3" d="M29.677,46.534h-1.509v-3.081h-2.827v3.081h-1.514v-7.139h1.514v2.798h2.827v-2.798h1.509V46.534z"/>
		<path fill="#B3B3B3" d="M33.731,46.633c-0.879,0-1.564-0.242-2.061-0.729c-0.495-0.484-0.742-1.172-0.742-2.061
			c0-0.915,0.229-1.622,0.688-2.122c0.457-0.5,1.089-0.75,1.896-0.75c0.771,0,1.372,0.22,1.802,0.659
			c0.431,0.438,0.646,1.047,0.646,1.82v0.723h-3.521c0.018,0.424,0.143,0.754,0.376,0.991c0.234,0.238,0.563,0.356,0.986,0.356
			c0.329,0,0.64-0.034,0.933-0.104c0.293-0.068,0.6-0.177,0.918-0.326v1.151c-0.261,0.13-0.539,0.228-0.835,0.291
			S34.159,46.633,33.731,46.633z M33.521,42.032c-0.314,0-0.562,0.101-0.742,0.301c-0.179,0.199-0.28,0.483-0.308,0.854h2.09
			c-0.007-0.368-0.103-0.652-0.288-0.854C34.089,42.133,33.838,42.032,33.521,42.032z"/>
		<path fill="#B3B3B3" d="M38.559,46.534h-1.489v-7.598h1.489V46.534z"/>
		<path fill="#B3B3B3" d="M41.521,46.534h-1.488v-7.598h1.488V46.534z"/>
		<path fill="#B3B3B3" d="M47.943,43.795c0,0.889-0.233,1.584-0.702,2.086c-0.47,0.5-1.121,0.752-1.958,0.752
			c-0.524,0-0.986-0.115-1.388-0.345c-0.4-0.229-0.708-0.559-0.923-0.989c-0.215-0.43-0.322-0.931-0.322-1.504
			c0-0.892,0.232-1.584,0.698-2.079s1.12-0.742,1.963-0.742c0.524,0,0.986,0.114,1.388,0.342c0.399,0.229,0.708,0.555,0.923,0.981
			C47.837,42.723,47.943,43.223,47.943,43.795z M44.17,43.795c0,0.541,0.089,0.949,0.267,1.227c0.177,0.277,0.466,0.415,0.866,0.415
			c0.397,0,0.683-0.138,0.856-0.413c0.175-0.275,0.262-0.684,0.262-1.229c0-0.539-0.088-0.944-0.264-1.216
			c-0.177-0.27-0.465-0.404-0.864-0.404c-0.397,0-0.685,0.134-0.859,0.402C44.259,42.847,44.17,43.252,44.17,43.795z"/>
		<path fill="#B3B3B3" d="M56.06,46.534l-0.42-1.909l-0.565-2.411H55.04l-0.996,4.32h-1.603l-1.553-5.459h1.484l0.63,2.417
			c0.101,0.434,0.203,1.03,0.308,1.792h0.029c0.013-0.247,0.07-0.64,0.171-1.177l0.078-0.415l0.674-2.617h1.641l0.641,2.617
			c0.013,0.072,0.033,0.178,0.062,0.317c0.027,0.14,0.055,0.289,0.08,0.446c0.026,0.158,0.05,0.313,0.07,0.464
			c0.021,0.151,0.034,0.273,0.037,0.364h0.028c0.029-0.233,0.081-0.556,0.156-0.964s0.129-0.684,0.161-0.828l0.654-2.417h1.46
			l-1.572,5.459H56.06z"/>
		<path fill="#B3B3B3" d="M64.992,43.795c0,0.889-0.234,1.584-0.703,2.086c-0.47,0.5-1.121,0.752-1.958,0.752
			c-0.524,0-0.986-0.115-1.388-0.345c-0.4-0.229-0.708-0.559-0.923-0.989c-0.215-0.43-0.321-0.931-0.321-1.504
			c0-0.892,0.231-1.584,0.697-2.079s1.12-0.742,1.963-0.742c0.524,0,0.986,0.114,1.388,0.342c0.399,0.229,0.708,0.555,0.923,0.981
			C64.885,42.723,64.992,43.223,64.992,43.795z M61.218,43.795c0,0.541,0.089,0.949,0.266,1.227
			c0.179,0.277,0.468,0.415,0.867,0.415c0.397,0,0.684-0.138,0.857-0.413s0.261-0.684,0.261-1.229c0-0.539-0.088-0.944-0.264-1.216
			c-0.177-0.27-0.464-0.404-0.864-0.404c-0.397,0-0.684,0.134-0.859,0.402C61.307,42.847,61.218,43.252,61.218,43.795z"/>
		<path fill="#B3B3B3" d="M69.18,40.973c0.202,0,0.369,0.015,0.504,0.044l-0.113,1.396c-0.117-0.031-0.266-0.049-0.438-0.049
			c-0.476,0-0.846,0.122-1.109,0.366c-0.267,0.244-0.396,0.586-0.396,1.025v2.777h-1.488v-5.459h1.129l0.219,0.918h0.074
			c0.168-0.306,0.396-0.553,0.687-0.739C68.527,41.066,68.841,40.973,69.18,40.973z"/>
		<path fill="#B3B3B3" d="M72.062,46.534h-1.488v-7.598h1.488V46.534z"/>
		<path fill="#B3B3B3" d="M75.254,46.633c-0.643,0-1.146-0.25-1.511-0.748c-0.367-0.498-0.55-1.188-0.55-2.069
			c0-0.895,0.187-1.593,0.56-2.092c0.372-0.5,0.886-0.75,1.54-0.75c0.688,0,1.211,0.267,1.572,0.801h0.049
			c-0.075-0.407-0.112-0.77-0.112-1.089v-1.748h1.494v7.598h-1.144l-0.287-0.708h-0.063C76.463,46.363,75.947,46.633,75.254,46.633z
			 M75.775,45.445c0.382,0,0.66-0.109,0.838-0.332c0.178-0.221,0.273-0.598,0.291-1.128v-0.161c0-0.586-0.092-1.006-0.271-1.26
			c-0.182-0.254-0.475-0.381-0.882-0.381c-0.332,0-0.59,0.141-0.774,0.422c-0.184,0.282-0.272,0.691-0.272,1.229
			c0,0.536,0.093,0.939,0.276,1.207C75.165,45.309,75.432,45.445,75.775,45.445z"/>
		<path fill="#B3B3B3" d="M79.544,45.836c0-0.272,0.073-0.479,0.22-0.619c0.147-0.141,0.359-0.211,0.641-0.211
			c0.271,0,0.479,0.072,0.629,0.215c0.146,0.145,0.223,0.35,0.223,0.615c0,0.258-0.072,0.461-0.227,0.608
			c-0.149,0.147-0.356,0.222-0.625,0.222c-0.271,0-0.483-0.072-0.635-0.217C79.619,46.305,79.544,46.1,79.544,45.836z
			 M81.004,44.166h-1.191l-0.248-4.771h1.688L81.004,44.166z"/>
	</g>
	<rect x="23.845" y="52.769" fill="#B3B3B3" width="63.501" height="2.487"/>
	<rect x="23.845" y="57.269" fill="#B3B3B3" width="63.501" height="2.487"/>
	<rect x="23.845" y="61.768" fill="#B3B3B3" width="63.501" height="2.488"/>
	<rect x="23.845" y="66.268" fill="#B3B3B3" width="63.501" height="2.488"/>
	<rect x="23.845" y="70.768" fill="#B3B3B3" width="63.501" height="2.488"/>
	<rect x="23.845" y="75.268" fill="#B3B3B3" width="63.501" height="2.488"/>
	<rect x="23.845" y="79.768" fill="#B3B3B3" width="19.75" height="2.488"/>
</g>
</svg>
