<?xml version="1.0" encoding="utf-8"?>
<!-- Generator: Adobe Illustrator 19.1.0, SVG Export Plug-In . SVG Version: 6.00 Build 0)  -->
<svg version="1.1" id="Layer_1" xmlns="http://www.w3.org/2000/svg" xmlns:xlink="http://www.w3.org/1999/xlink" x="0px" y="0px"
	 viewBox="0 0 130 112" style="enable-background:new 0 0 130 112;" xml:space="preserve">
<style type="text/css">
	.st0{fill:#CCCCCC;}
	.st1{fill:#F15A24;}
	.st2{fill:#B3B3B3;}
	.st3{fill:#FFFFFF;}
	.st4{font-family:'OpenSans-Extrabold';}
	.st5{font-size:9.1515px;}
	.st6{font-family:'Futura-CondensedExtraBold';}
	.st7{font-size:10px;}
	.st8{font-size:12px;}
</style>
<g>
	<g>
		<polygon class="st0" points="112.8,27.3 112.8,26.7 22.3,26.7 22.3,6.4 112.2,6.4 112.2,27.3 112.8,27.3 112.8,26.7 112.8,27.3 
			113.4,27.3 113.4,5.2 21.1,5.2 21.1,27.9 113.4,27.9 113.4,27.3 		"/>
		<polygon class="st0" points="112.8,106.2 112.8,105.6 22.2,105.6 22.2,91.1 112.2,91.1 112.2,106.2 112.8,106.2 112.8,105.6 
			112.8,106.2 113.4,106.2 113.4,90 21.1,90 21.1,106.8 113.4,106.8 113.4,106.2 		"/>
		<polygon class="st0" points="97.7,87.6 98.3,87.6 98.3,30.8 112.2,30.8 112.2,87.1 97.7,87.1 97.7,87.6 98.3,87.6 97.7,87.6 
			97.7,88.2 113.4,88.2 113.4,29.6 97.1,29.6 97.1,88.2 97.7,88.2 		"/>
		<polygon class="st1" points="21.7,87.8 21.7,88.4 95.4,88.4 95.4,29.6 21.1,29.6 21.1,88.4 21.7,88.4 21.7,87.8 22.2,87.8 
			22.2,30.8 94.2,30.8 94.2,87.2 21.7,87.2 21.7,87.8 22.2,87.8 		"/>
		<rect x="26.1" y="34.5" class="st2" width="63.5" height="2.5"/>
		<rect x="26.1" y="39" class="st2" width="63.5" height="2.5"/>
		<rect x="26.1" y="43.5" class="st2" width="63.5" height="2.5"/>
		<rect x="26.1" y="48" class="st2" width="63.5" height="2.5"/>
		<rect x="26.1" y="52.5" class="st2" width="63.5" height="2.5"/>
		<rect x="26.1" y="57" class="st2" width="63.5" height="2.5"/>
		<rect x="26.1" y="61.5" class="st2" width="19.8" height="2.5"/>
	</g>
	<rect x="39.9" y="70.2" class="st2" width="10.3" height="10.7"/>
	<rect x="52.5" y="70.2" class="st1" width="10.3" height="10.7"/>
	<rect x="65.1" y="70.2" class="st2" width="10.3" height="10.7"/>
	<text transform="matrix(1 0 0 1 42.197 79.0213)" class="st3 st4 st5">1</text>
	<text transform="matrix(1 0 0 1 54.822 79.0213)" class="st3 st4 st5">2</text>
	<text transform="matrix(1 0 0 1 67.572 79.0213)" class="st3 st4 st5">3</text>
	<text transform="matrix(1 0 0 1 79.6398 80.0785)" class="st2 st6 st7">&gt;&gt;</text>
	<text transform="matrix(-1 0 0 1 36.2769 80.0785)"><tspan x="0" y="0" class="st2 st6 st7">&gt;&gt;</tspan><tspan x="11.8" y="0" class="st2 st6 st8"> </tspan></text>
</g>
</svg>
