<?xml version="1.0" encoding="utf-8"?>
<!-- Generator: Adobe Illustrator 21.0.0, SVG Export Plug-In . SVG Version: 6.00 Build 0)  -->
<svg version="1.1" id="Layer_1" xmlns="http://www.w3.org/2000/svg" xmlns:xlink="http://www.w3.org/1999/xlink" x="0px" y="0px"
	 viewBox="0 0 130 130" style="enable-background:new 0 0 130 130;" xml:space="preserve">
<style type="text/css">
	.st0{fill:#CCCCCC;}
	.st1{fill:#F15A24;}
	.st2{fill:#B3B3B3;}
</style>
<g>
	<polygon class="st0" points="116.9,44.6 116.9,44 26.4,44 26.4,23.7 116.3,23.7 116.3,44.6 116.9,44.6 116.9,44 116.9,44.6 
		117.5,44.6 117.5,22.6 25.2,22.6 25.2,45.2 117.5,45.2 117.5,44.6 	"/>
	<polygon class="st0" points="116.9,123.6 116.9,123 26.4,123 26.4,108.5 116.3,108.5 116.3,123.6 116.9,123.6 116.9,123 
		116.9,123.6 117.5,123.6 117.5,107.3 25.2,107.3 25.2,124.1 117.5,124.1 117.5,123.6 	"/>
	<polygon class="st0" points="101.8,105 102.4,105 102.4,48.1 116.3,48.1 116.3,104.4 101.8,104.4 101.8,105 102.4,105 101.8,105 
		101.8,105.6 117.5,105.6 117.5,47 101.3,47 101.3,105.6 101.8,105.6 	"/>
	<polygon class="st1" points="25.8,105.1 25.8,105.7 99.5,105.7 99.5,47 25.2,47 25.2,105.7 25.8,105.7 25.8,105.1 26.4,105.1 
		26.4,48.1 98.3,48.1 98.3,104.6 25.8,104.6 25.8,105.1 26.4,105.1 	"/>
	<path class="st2" d="M29.8,78.3v15.9h20.4V78.3H29.8z M34.8,80.3c1.1,0,2,0.9,2,2c0,1.1-0.9,2-2,2c-1.1,0-2-0.9-2-2
		C32.8,81.2,33.7,80.3,34.8,80.3z M32.3,92.3l2.6-4.4l0.8,1.4l1.8,3H32.3z M39.2,92.3L37,88.6l3.4-3.8l7.5,7.6H39.2z"/>
	<path class="st2" d="M52.5,78.3v15.9h20.4V78.3H52.5z M57.6,80.3c1.1,0,2,0.9,2,2c0,1.1-0.9,2-2,2c-1.1,0-2-0.9-2-2
		C55.6,81.2,56.5,80.3,57.6,80.3z M55.1,92.3l2.6-4.4l0.8,1.4l1.8,3H55.1z M62,92.3l-2.2-3.8l3.4-3.8l7.5,7.6H62z"/>
	<path class="st2" d="M75.3,78.3v15.9h20.4V78.3H75.3z M80.4,80.3c1.1,0,2,0.9,2,2c0,1.1-0.9,2-2,2c-1.1,0-2-0.9-2-2
		C78.3,81.2,79.2,80.3,80.4,80.3z M77.8,92.3l2.6-4.4l0.8,1.4l1.8,3H77.8z M84.7,92.3l-2.2-3.8l3.4-3.8l7.5,7.6H84.7z"/>
	<path class="st2" d="M29.8,52.4v15.9h20.4V52.4H29.8z M34.8,54.4c1.1,0,2,0.9,2,2c0,1.1-0.9,2-2,2c-1.1,0-2-0.9-2-2
		C32.8,55.3,33.7,54.4,34.8,54.4z M32.3,66.4l2.6-4.4l0.8,1.4l1.8,3H32.3z M39.2,66.4L37,62.7l3.4-3.8l7.5,7.6H39.2z"/>
	<path class="st2" d="M52.5,52.4v15.9h20.4V52.4H52.5z M57.6,54.4c1.1,0,2,0.9,2,2c0,1.1-0.9,2-2,2c-1.1,0-2-0.9-2-2
		C55.6,55.3,56.5,54.4,57.6,54.4z M55.1,66.4l2.6-4.4l0.8,1.4l1.8,3H55.1z M62,66.4l-2.2-3.8l3.4-3.8l7.5,7.6H62z"/>
	<path class="st2" d="M75.3,52.4v15.9h20.4V52.4H75.3z M80.4,54.4c1.1,0,2,0.9,2,2c0,1.1-0.9,2-2,2c-1.1,0-2-0.9-2-2
		C78.3,55.3,79.2,54.4,80.4,54.4z M77.8,66.4l2.6-4.4l0.8,1.4l1.8,3H77.8z M84.7,66.4l-2.2-3.8l3.4-3.8l7.5,7.6H84.7z"/>
	<rect x="29.8" y="70.2" class="st2" width="9.8" height="1.2"/>
	<rect x="29.8" y="72.5" class="st1" width="7.5" height="1.2"/>
	<polygon class="st2" points="43.4,69.3 43.8,70.7 45.4,70.7 44.1,71.7 44.6,73.1 43.4,72.2 42.1,73.1 42.6,71.7 41.3,70.7 
		42.9,70.7 	"/>
	<polygon class="st2" points="48.1,69.3 48.5,70.7 50.1,70.7 48.8,71.7 49.3,73.1 48.1,72.2 46.8,73.1 47.3,71.7 46,70.7 47.6,70.7 
			"/>
	<rect x="52.5" y="70.2" class="st2" width="9.8" height="1.2"/>
	<rect x="52.5" y="72.5" class="st1" width="7.5" height="1.2"/>
	<polygon class="st2" points="66,69.3 66.5,70.7 68.1,70.7 66.8,71.7 67.3,73.1 66,72.2 64.8,73.1 65.3,71.7 64,70.7 65.6,70.7 	"/>
	<polygon class="st2" points="70.7,69.3 71.2,70.7 72.8,70.7 71.5,71.7 72,73.1 70.7,72.2 69.5,73.1 70,71.7 68.7,70.7 70.2,70.7 	
		"/>
	<rect x="75.4" y="70.2" class="st2" width="9.8" height="1.2"/>
	<rect x="75.4" y="72.5" class="st1" width="7.5" height="1.2"/>
	<polygon class="st2" points="88.9,69.3 89.4,70.7 91,70.7 89.7,71.7 90.2,73.1 88.9,72.2 87.7,73.1 88.2,71.7 86.9,70.7 88.5,70.7 
			"/>
	<polygon class="st2" points="93.6,69.3 94.1,70.7 95.7,70.7 94.4,71.7 94.9,73.1 93.6,72.2 92.4,73.1 92.9,71.7 91.6,70.7 
		93.2,70.7 	"/>
	<rect x="29.8" y="96.1" class="st2" width="9.8" height="1.2"/>
	<rect x="29.8" y="98.4" class="st1" width="7.5" height="1.2"/>
	<polygon class="st2" points="43.4,95.2 43.8,96.7 45.4,96.7 44.1,97.6 44.6,99 43.4,98.1 42.1,99 42.6,97.6 41.3,96.7 42.9,96.7 	
		"/>
	<polygon class="st2" points="48.1,95.2 48.5,96.7 50.1,96.7 48.8,97.6 49.3,99 48.1,98.1 46.8,99 47.3,97.6 46,96.7 47.6,96.7 	"/>
	<rect x="52.5" y="96.1" class="st2" width="9.8" height="1.2"/>
	<rect x="52.5" y="98.4" class="st1" width="7.5" height="1.2"/>
	<polygon class="st2" points="66,95.2 66.5,96.7 68.1,96.7 66.8,97.6 67.3,99 66,98.1 64.8,99 65.3,97.6 64,96.7 65.6,96.7 	"/>
	<polygon class="st2" points="70.7,95.2 71.2,96.7 72.8,96.7 71.5,97.6 72,99 70.7,98.1 69.5,99 70,97.6 68.7,96.7 70.2,96.7 	"/>
	<rect x="75.4" y="96.1" class="st2" width="9.8" height="1.2"/>
	<rect x="75.4" y="98.4" class="st1" width="7.5" height="1.2"/>
	<polygon class="st2" points="88.9,95.2 89.4,96.7 91,96.7 89.7,97.6 90.2,99 88.9,98.1 87.7,99 88.2,97.6 86.9,96.7 88.5,96.7 	"/>
	<polygon class="st2" points="93.6,95.2 94.1,96.7 95.7,96.7 94.4,97.6 94.9,99 93.6,98.1 92.4,99 92.9,97.6 91.6,96.7 93.2,96.7 	
		"/>
</g>
</svg>
