<?xml version="1.0" encoding="utf-8"?>
<!-- Generator: Adobe Illustrator 16.0.0, SVG Export Plug-In . SVG Version: 6.00 Build 0)  -->
<!DOCTYPE svg PUBLIC "-//W3C//DTD SVG 1.1//EN" "http://www.w3.org/Graphics/SVG/1.1/DTD/svg11.dtd">
<svg version="1.1" id="Layer_1" xmlns="http://www.w3.org/2000/svg" xmlns:xlink="http://www.w3.org/1999/xlink" x="0px" y="0px"
	 width="130px" height="120px" viewBox="0 0 130 120" enable-background="new 0 0 130 120" xml:space="preserve">
<g>
	<path fill="#CCCCCC" d="M109.601,34.5v-0.6H19V13.6h90v20.9H109.601v-0.6V34.5h0.5V12.4H17.9v22.7h92.2v-0.6H109.601z"/>
	<path fill="#CCCCCC" d="M56.399,64.7v0.5H92.2V36.8H55.899v28.4h0.5V64.7H57V38h33.999v26.102h-34.6V64.7H57H56.399z M18.399,64.7
		v0.5h35.8V36.8h-36.3v28.4h0.5V64.7H19V38h34v26.102h-34.6V64.7H19H18.399z M56.399,94.801v0.602H92.2V67H55.899v28.4h0.5V94.801
		H57V68.102h33.999v26.101h-34.6V94.801H57H56.399z M18.399,94.801v0.602h35.8V67h-36.3v28.4h0.5V94.801H19V68.102h34v26.101h-34.6
		V94.801H19H18.399z"/>
	<polygon fill="#CCCCCC" points="109.601,119.4 109.601,118.801 19,118.801 19,98.5 108.999,98.5 108.999,119.4 109.601,119.4 
		109.601,118.801 109.601,119.4 110.101,119.4 110.101,97.301 17.899,97.301 17.899,120 110.101,120 110.101,119.4 	"/>
	<polygon fill="#F05A29" points="94.499,94.801 95.101,94.801 95.101,38 108.999,38 108.999,94.301 94.499,94.301 94.499,94.801 
		95.101,94.801 94.499,94.801 94.499,95.402 110.101,95.402 110.101,36.8 93.899,36.8 93.899,95.4 94.499,95.4 	"/>
</g>
<g>
</g>
<g>
</g>
<g>
</g>
<g>
</g>
<g>
</g>
<g>
</g>
<g>
</g>
<g>
</g>
<g>
</g>
<g>
</g>
<g>
</g>
<g>
</g>
<g>
</g>
<g>
</g>
<g>
</g>
</svg>
