<?xml version="1.0" encoding="utf-8"?>
<!-- Generator: Adobe Illustrator 21.0.0, SVG Export Plug-In . SVG Version: 6.00 Build 0)  -->
<svg version="1.1" id="Layer_1" xmlns="http://www.w3.org/2000/svg" xmlns:xlink="http://www.w3.org/1999/xlink" x="0px" y="0px"
	 viewBox="0 0 130 130" style="enable-background:new 0 0 130 130;" xml:space="preserve">
<style type="text/css">
	.st0{fill:#CCCCCC;}
	.st1{fill:#F15A24;}
	.st2{fill:#B3B3B3;}
	.st3{opacity:0.7;fill:#B3B3B3;}
	.st4{fill:#FFFFFF;}
	.st5{font-family:'OpenSans-Extrabold';}
	.st6{font-size:8.2069px;}
</style>
<g>
	<polygon class="st0" points="116.9,44.6 116.9,44 26.4,44 26.4,23.7 116.3,23.7 116.3,44.6 116.9,44.6 116.9,44 116.9,44.6 
		117.5,44.6 117.5,22.6 25.2,22.6 25.2,45.2 117.5,45.2 117.5,44.6 	"/>
	<polygon class="st0" points="116.9,123.6 116.9,123 26.4,123 26.4,108.5 116.3,108.5 116.3,123.6 116.9,123.6 116.9,123 
		116.9,123.6 117.5,123.6 117.5,107.3 25.2,107.3 25.2,124.1 117.5,124.1 117.5,123.6 	"/>
	<polygon class="st0" points="101.8,105 102.4,105 102.4,48.1 116.3,48.1 116.3,104.4 101.8,104.4 101.8,105 102.4,105 101.8,105 
		101.8,105.6 117.5,105.6 117.5,47 101.3,47 101.3,105.6 101.8,105.6 	"/>
	<polygon class="st1" points="25.8,105.1 25.8,105.7 99.5,105.7 99.5,47 25.2,47 25.2,105.7 25.8,105.7 25.8,105.1 26.4,105.1 
		26.4,48.1 98.3,48.1 98.3,104.6 25.8,104.6 25.8,105.1 26.4,105.1 	"/>
	<path class="st2" d="M29.8,51.5v32h40.9v-32H29.8z M40,55.5c2.2,0,4,1.8,4,4c0,2.2-1.8,4.1-4,4.1c-2.2,0-4-1.8-4-4.1
		C35.9,57.3,37.7,55.5,40,55.5z M34.9,79.6l5.3-8.8l1.7,2.8l3.6,6H34.9z M48.8,79.6l-4.4-7.5l6.8-7.7l15.1,15.2H48.8z"/>
	<path class="st3" d="M29.8,85.7v14.8h18.9V85.7H29.8z M34.5,87.5c1,0,1.9,0.8,1.9,1.9c0,1-0.8,1.9-1.9,1.9c-1,0-1.9-0.8-1.9-1.9
		C32.6,88.4,33.4,87.5,34.5,87.5z M32.1,98.7l2.4-4.1l0.8,1.3l1.7,2.8H32.1z M38.6,98.7l-2-3.5l3.2-3.6l7,7H38.6z"/>
	<path class="st3" d="M51.6,85.7v14.8h18.9V85.7H51.6z M56.3,87.5c1,0,1.9,0.8,1.9,1.9c0,1-0.8,1.9-1.9,1.9c-1,0-1.9-0.8-1.9-1.9
		C54.4,88.4,55.2,87.5,56.3,87.5z M53.9,98.7l2.4-4.1l0.8,1.3l1.7,2.8H53.9z M60.4,98.7l-2-3.5l3.2-3.6l7,7H60.4z"/>
	<rect x="73.9" y="63.5" class="st2" width="19.9" height="2.4"/>
	<rect x="73.9" y="51.8" class="st1" width="19.9" height="2.4"/>
	<rect x="73.9" y="68.1" class="st2" width="15.1" height="2.4"/>
	<rect x="73.9" y="72.8" class="st2" width="17.9" height="2.4"/>
	<rect x="73.9" y="77.4" class="st2" width="19.9" height="2.4"/>
	<rect x="73" y="85.7" class="st1" width="22.7" height="15"/>
	<polygon class="st1" points="75.5,56.6 76,57.9 77.3,57.9 76.2,58.7 76.6,60 75.5,59.2 74.5,60 74.9,58.7 73.8,57.9 75.1,57.9 	"/>
	<polygon class="st1" points="80.2,56.6 80.6,57.9 81.9,57.9 80.8,58.7 81.3,60 80.2,59.2 79.1,60 79.5,58.7 78.4,57.9 79.8,57.9 	
		"/>
	<polygon class="st2" points="84.8,56.6 85.2,57.9 86.6,57.9 85.5,58.7 85.9,60 84.8,59.2 83.7,60 84.1,58.7 83,57.9 84.4,57.9 	"/>
	<polygon class="st2" points="89.4,56.6 89.8,57.9 91.2,57.9 90.1,58.7 90.5,60 89.4,59.2 88.3,60 88.7,58.7 87.7,57.9 89,57.9 	"/>
	<text transform="matrix(1 0 0 1 74.8712 96.291)" class="st4 st5 st6">BUY</text>
</g>
</svg>
