<?xml version="1.0" encoding="utf-8"?>
<!-- Generator: Adobe Illustrator 16.0.0, SVG Export Plug-In . SVG Version: 6.00 Build 0)  -->
<!DOCTYPE svg PUBLIC "-//W3C//DTD SVG 1.1//EN" "http://www.w3.org/Graphics/SVG/1.1/DTD/svg11.dtd">
<svg version="1.1" id="Layer_1" xmlns="http://www.w3.org/2000/svg" xmlns:xlink="http://www.w3.org/1999/xlink" x="0px" y="0px"
	 width="113.683px" height="175.831px" viewBox="0 0 113.683 175.831" enable-background="new 0 0 113.683 175.831"
	 xml:space="preserve">
<g>
	<g>
		<g>
			<path fill="#EAF7FE" d="M113.683,118.709c-1.866,0-3.876-0.86-5.312-7.464s-3.588-13.35-3.588-13.35
				c2.297,0,3.588-1.004,3.588-1.004c-1.578-0.719-5.023-3.158-7.32-6.172c-2.295-3.015-8.182-7.896-8.182-7.896s0-3.157,0-9.761
				c0-6.603,4.235-11.77,4.235-11.77c-2.87,0-4.235,2.583-4.235,2.583s0-0.143,0-13.923c0-13.78,6.961-19.951,6.961-19.951
				c-2.152-0.143-3.588,0.861-3.588,0.861c1.006-10.191,4.127-13.206,4.127-13.206c-11.482-3.014-17.889,3.732-17.889,3.732
				c-1.292-6.172,3.759-9.762,3.759-9.762c-5.885-1.292-10.752,0.431-10.752,0.431C75.488,3.016,79.083,0,79.083,0
				C61.141,0,50.954,13.491,50.954,13.491c-0.718-5.742,0.862-10.77,0.862-10.77c-17.368,7.32-21.96,23.532-21.96,23.532
				c-1.148-2.727-1.291-8.918-1.291-8.918s-7.177,12.022-8.469,20.346c-1.292,8.326,1.148,32.225,1.148,32.225
				s-1.148-1.435-3.589-1.722c0,0,2.584,2.871,2.584,9.33c0,0-1.005-0.861-2.728-0.432c0,0,2.727,2.439,3.014,6.604
				c0,0-3.158,2.152-4.88,4.306c0,0-2.728,0.144-4.163,0.573c0,0,2.297,1.293,2.728,2.44c0,0-6.746,6.89-10.191,12.488
				c0,0,3.014-1.866,5.167-1.292c0,0-4.737,5.74-6.316,15.215c0,0,2.296-1.148,3.301-0.574c0,0-2.871,6.028-3.014,12.344L0,131.054
				l2.44,1.721c0,0-1.866,7.752-2.297,12.201c0,0,1.435-1.435,2.584-1.865c0,0,1.579,3.731,3.732,6.603s7.034,5.312,9.904,5.312
				l5.396-0.211c-0.668,2.888-1.989,5.336-4.771,5.465l-0.309,0.494c-0.059-0.004-0.116-0.006-0.172-0.008
				c-0.055,0.844-1.757,0.996-2.226,1.58c-1.423,1.774-2.507,4.213-3.23,6.387c-0.529,1.593-0.279,1.593-0.646,3.229
				c-0.12,0.536-0.676,1.108-0.861,1.651c1.55-0.521,5.845-0.868,8.108-1.035l0.038,2.003c0,0,0.373,0.347,0.991,0.599
				c0.021-0.005,0.042-0.011,0.067-0.009c0.211,0.017,0.414,0.048,0.611,0.097c3.395-0.304,5.76,0.27,9.694-0.058
				c0.766-0.091,1.483-0.198,2.153-0.58c0.191-0.569,0.217-0.604,0.307-1.34c0.02-0.131,0.02-0.267,0.051-0.426
				c0.062-0.011,0.122-0.019,0.182-0.028c0.023-0.009,0.061-0.016,0.141-0.02c0.017-0.004,0.031-0.012,0.05-0.014
				c0.062-0.006,0.124-0.012,0.187-0.017c0.043-0.017,0.084-0.021,0.121-0.011c0.713-0.064,1.856-0.125,2.568-0.162
				c2.314-0.004,5.359,0.263,5.359,0.263c0.188-2.595,0.377-6.621,4.576-18.354l1.041-0.646c0,0,12.895,4.544,24.86-0.185
				c0.947,2.332,4.011,10.164,4.492,15.103c0.412,0.579,0.366,1.313,0.38,2.091c0.012,0.659,0.066,1.317,0.085,1.975
				c0.431-0.059,1.983-0.25,3.944-0.246c0.713,0.039,1.855,0.099,2.568,0.162c0.037-0.01,0.078-0.006,0.121,0.011
				c0.062,0.005,0.124,0.01,0.188,0.017c0.019,0.002,0.033,0.01,0.05,0.014c0.081,0.004,0.117,0.011,0.14,0.02
				c0.061,0.01,0.12,0.018,0.182,0.028c0.033,0.159,0.033,0.294,0.052,0.426c0.09,0.735,0.114,0.771,0.306,1.34
				c0.061,0.035,0.124,0.065,0.186,0.097c2.144-0.272,4.314-0.322,6.471-0.22c1.695,0.08,3.361,0.399,5.031,0.702
				c0,0.016,0.002,0.032,0.002,0.048c0.168,0.019,0.333,0.03,0.496,0.041c0.896,0.16,1.795,0.31,2.697,0.407
				c0.018-1.13,0.012-2.119-0.013-2.987c1.798,0.087,4.399,0.444,5.492,0.603c0.433,0.104,0.784,0.169,1.153,0.248
				c0.05,0.015,0.103,0.029,0.147,0.045c-0.002-0.004-0.004-0.01-0.005-0.014c0.371,0.084,0.77,0.188,1.297,0.373
				c-0.08-0.972-0.072-0.951-0.201-2.168c-0.099-0.943-0.773-3.803-2.037-4.982c0,0,1.377,0.595,1.797,0.832
				c-1.357-1.838-2.017-4.467-6.279-6.278c0,0,0.777-0.367,1.49-0.46c-0.744-0.458-1.312-0.639-2.065-0.584
				c0.256-0.727,1.382-2.559,2.326-2.795c0,0-0.58-0.403-1.528-0.092c-0.352,0.186-0.693,0.384-1.027,0.617
				c-0.125,0.09-0.309-0.002-0.346-0.141c-0.298-1.102-0.492-2.222-0.668-3.347c8.59-0.312,9.795-4.718,9.795-4.718
				c0.717,0.574,0.717,1.865,0.717,1.865c3.731-4.88,3.302-9.761,3.302-9.761c0.86,0.144,1.579,0.718,1.579,0.718
				c0.431-7.464-1.866-20.238-1.866-20.238c1.147,0.574,1.866-0.144,1.866-0.144c-1.293-0.573-1.436-2.01-1.436-2.01
				C113.396,120.431,113.683,118.709,113.683,118.709z"/>
		</g>
		<path fill="#CDEAF5" d="M31.565,172.865c0,0,0.336-3.63-0.848-6.25c0,0,2.242,0.151,2.619,6.073
			C33.336,172.688,31.767,172.87,31.565,172.865z"/>
		<path fill="#CDEAF5" d="M20.311,160.622l0.014-0.111C20.333,160.565,20.331,160.608,20.311,160.622z"/>
		<path fill="#CDEAF5" d="M22.411,172.583c-0.014-0.003-0.021-0.005-0.021-0.005s0.009-0.024,0.026-0.067L22.411,172.583z"/>
		<path fill="#CDEAF5" d="M50.954,13.491c-0.717-5.742,0.863-10.77,0.863-10.77c-17.367,7.32-21.961,23.532-21.961,23.532
			c-1.148-2.727-1.291-8.918-1.291-8.918s-7.177,12.022-8.469,20.346c-1.292,8.326,1.148,32.225,1.148,32.225
			s-1.148-1.435-3.589-1.722c0,0,2.585,2.871,2.585,9.33c0,0-1.006-0.861-2.729-0.432c0,0,2.727,2.439,3.014,6.604
			c0,0-3.158,2.152-4.88,4.306c0,0-2.728,0.144-4.163,0.573c0,0,2.297,1.293,2.728,2.44c0,0-6.746,6.89-10.191,12.488
			c0,0,3.014-1.866,5.167-1.292c0,0-4.737,5.74-6.316,15.215c0,0,2.296-1.148,3.301-0.574c0,0-2.871,6.028-3.014,12.344L0,131.054
			l2.44,1.721c0,0-1.866,7.752-2.297,12.201c0,0,1.435-1.435,2.584-1.865c0,0,1.579,3.732,3.732,6.603
			c2.153,2.871,7.034,5.312,9.904,5.312l0.363-0.051c-0.16,0.99-0.34,1.977-0.603,2.947c-0.037,0.137-0.22,0.23-0.346,0.141
			c-0.333-0.234-0.675-0.433-1.027-0.616c-0.948-0.312-1.528,0.091-1.528,0.091c0.945,0.236,2.07,2.068,2.326,2.795
			c-0.753-0.055-1.321,0.126-2.065,0.584c0.712,0.092,1.49,0.46,1.49,0.46c-4.262,1.812-4.922,4.44-6.279,6.278
			c0.42-0.237,1.796-0.832,1.796-0.832c-1.263,1.18-1.938,4.039-2.037,4.982c-0.128,1.217-0.121,1.196-0.201,2.168
			c1.13-0.394,1.679-0.432,2.594-0.651c1.413-0.206,5.363-0.589,6.814-0.438l-0.229,2.949c0,0,0.028,0,0.071,0
			c0.744-1,1.352-0.344,2.016-0.416c0.01-0.77,0.05-1.617,0.113-2.383c-0.045-1.311,0.117-2.542,0.386-3.871
			c0.009-0.045,0.021-0.111,0.028-0.156c0.527-1.814,1.445-2.857,2.039-3.492c0.199-0.211,0.369-0.467,0.517-0.723
			c0.354-0.473,0.726-1.092,1.01-1.869c0.591-1.609,0.337-5.148-0.849-8.601c1.251,1.799,2.389,3.377,2.929,3.917l-0.036-4.396
			c0,0,2.297,2.295,4.352,4.029c0.99,0.863,2.211,1.896,3.078,2.344c0.062,0.04,0.119,0.161,0.188,0.161l0,0
			c0.01,0,0.018-0.032,0.025-0.028c1.164,0.653,2.363,1.217,3.484,1.943c0.119,0.077,0.242,0.139,0.359,0.219
			c0.52,0.357,1.432,0.766,2.253,1.199l0.776,9.173c0.699-9.635,6.189-18.858,6.189-18.858l-0.201-0.06
			c-1.699-0.524-14.129-4.825-21.473-20.18c-0.484-1.011,2.727,1.147,2.727,1.147c-3.014-7.319-4.162-19.091-4.162-19.091
			c1.004,0.861,2.01,1.005,2.01,1.005c-2.153-6.029-3.014-13.492-3.014-20.238c-0.574-36.315,12.847-44.641,12.847-44.641
			c-2.296-0.861-4.737-0.789-4.737-0.789C33.012,44.79,41.838,35.89,41.838,35.89c-2.367,0.144-11.627,2.655-11.627,2.655
			c7.68-20.024,15.432-25.334,15.432-25.334c-0.574,4.808,1.292,9.904,1.292,9.904C63.586,2.517,76.963,3.478,76.963,3.478
			c0.992-2.066,2.119-3.475,2.119-3.475C61.142,0,50.954,13.491,50.954,13.491z"/>
		<path fill="#CDEAF5" d="M98.019,172.751c0,0-0.162-5.204-1.347-7.822c0,0,3.086,1.901,3.07,7.911
			C99.743,172.84,98.22,172.757,98.019,172.751z"/>
		<path fill="#ACDBE3" d="M17.724,145.988c2.032-19.91,2.586-58.859,2.586-58.859c-4.414,8.72-7.966,24.545-7.966,24.545
			l0.861,3.445l-1.938-0.861c-3.114,10.81-1.007,25.278-0.309,29.354C12.94,145.181,15.299,145.71,17.724,145.988z"/>
		<path fill="#ACDBE3" d="M13.561,145.558c0.631,3.188,1.286,6.256,2.013,9.422c0.538,0.08,1.143,0.039,1.143,0.039
			c0.494-1.924,0.576-4.904,0.961-8.568C16.263,146.284,14.874,146.033,13.561,145.558z"/>
		<path fill="#CDEAF5" d="M81.019,162.715c-0.116,0.034-0.204-0.018-0.251-0.097c-0.223,0.044-0.395,0.084-0.51,0.113l0,0
			c2.962-2.154,3.234-4.434,3.234-4.434c-1.965,0.887-4.051,1.217-5.064,1.333c6.845-5.933,7.982-16.95,7.982-16.95
			c-2.805,3.442-6.783,6.351-9.857,8.303l0.007-0.014c0,0-2.06,1.152-3.964,2.049c-0.084-0.013-0.167,0.01-0.23,0.107
			c-0.978,0.453-1.89,0.823-2.427,0.912c0,0,1.585,2.927,2.247,4.506l-0.13,0.105c0,0,2.294,5.42,3.128,10.672
			c0.088,0.887,0.156,1.664,0.204,2.259c0.04,0.769,0.095,1.298,0.095,1.298c3.032-0.449,7.316-0.012,7.316-0.012
			c-0.021,0.494,0.25,1.68,0.301,1.895c1.439-0.193,2.893-0.279,4.346-0.291C87.426,169.378,87.204,160.922,81.019,162.715z"/>
		<path fill="#85C1CE" d="M17.566,147.524c-4.756-0.805-9.071-6.271-9.071-6.271c3.467,3.687,7.784,4.181,7.784,4.181
			c0.57-4.211-2.91-13.848-2.91-13.848c2.577,3.21,3.987,6.924,4.758,9.961L17.566,147.524z"/>
		<path fill="#ACDBE3" d="M28.358,140.069c0,0,3.741,6.594,7.023,9.447c3.543,3.078,6.836,7.428,8.236,10.065
			c0,0,1.776-4.126,2.745-5.562C46.363,154.019,35.868,150.942,28.358,140.069z"/>
		<path fill="#ACDBE3" d="M77.187,152.929c0.521-0.731,1.116-1.412,1.685-2.106c0.93-1.14,1.994-2.246,2.775-3.487
			c-1.35,1.01-2.852,1.885-4.387,2.809c-4.457,3.02-7.563,3.875-7.563,3.875c0.97,1.437,2.745,5.562,2.745,5.562
			c0.848-1.596,2.391-3.82,4.26-6.009C76.859,153.354,77.034,153.146,77.187,152.929z"/>
		<path fill="#5C5B5D" d="M26.939,41.876c-0.408,0.029-1.714,0.063-1.714,0.063C13.39,42.765,4.691,33.594,4.691,33.594
			s-0.778,7.159,4.363,13.432c5.143,6.273,15.563,7.347,15.563,7.347c0.338,1.467-0.396,4.738-0.396,4.738s3.047-3.371,3.821-9.757
			C28.586,44.877,27.191,41.857,26.939,41.876"/>
		<path fill="#747F83" d="M26.939,41.876c-0.392,0.022-1.714,0.063-1.714,0.063C13.39,42.765,4.691,33.594,4.691,33.594
			s5.407,15.646,23.463,14.41C28.153,48.003,28.653,45.109,26.939,41.876"/>
		<path fill="#5C5B5D" d="M86.026,41.876c0.408,0.029,1.714,0.063,1.714,0.063c11.835,0.826,20.534-8.345,20.534-8.345
			s0.777,7.159-4.363,13.432c-5.143,6.273-15.562,7.347-15.562,7.347c-0.34,1.467,0.395,4.738,0.395,4.738s-3.047-3.371-3.82-9.757
			C84.377,44.877,85.774,41.857,86.026,41.876"/>
		<path fill="#747F83" d="M86.026,41.876c0.393,0.022,1.714,0.063,1.714,0.063c11.835,0.826,20.534-8.345,20.534-8.345
			s-5.406,15.646-23.463,14.41C84.811,48.003,84.312,45.109,86.026,41.876"/>
		<path fill="#CDEAF5" d="M20.938,94.881c0,0-9,30.574,0,50.167V94.881z"/>
		<path fill="#CDEAF5" d="M105.465,143.243c-4.199,3.204-8.567,3.406-8.567,3.406c-0.194-4.186,4.381-13.336,4.381-13.336
			c-1.041,0.615-1.878,1.357-2.565,2.174l-0.03-3.071l3.301-2.728l-2.655-2.152l3.373-13.564l-3.229,2.153
			c0,0-1.005-19.306-0.287-27.631c0,0-4.091-4.091-6.101-5.742c0,0,0.379,5.944,0.812,15.442c1.833,7.619,4.682,23.385,1.139,37.252
			c0.041,2.811,0.071,5.664,0.088,8.547c0,0,1.765,6.133,2.338,10.439c0,0,0.574,0.16,1.436,0.018l-0.064-6.596
			C103.268,146.515,105.465,143.243,105.465,143.243z"/>
		<ellipse fill="#CDEAF5" cx="70.334" cy="84.042" rx="4.664" ry="5.904"/>
		<ellipse fill="#FFFFFF" cx="70.406" cy="82.465" rx="4.593" ry="5.813"/>
		<path fill="#4F4E51" d="M69.186,79.468c-0.037,0.143-0.062,0.291-0.062,0.449c0,0.818,0.535,1.482,1.192,1.482
			c0.585,0,1.069-0.524,1.17-1.215c0.375,0.492,0.606,1.154,0.606,1.886c0,1.516-0.988,2.745-2.207,2.745s-2.207-1.229-2.207-2.745
			C67.679,80.858,68.31,79.832,69.186,79.468z"/>
		<ellipse fill="#CDEAF5" cx="47.942" cy="84.042" rx="4.665" ry="5.904"/>
		<ellipse fill="#FFFFFF" cx="48.014" cy="82.465" rx="4.593" ry="5.813"/>
		<path fill="#4F4E51" d="M47.655,79.468c-0.037,0.143-0.062,0.291-0.062,0.449c0,0.818,0.535,1.482,1.193,1.482
			c0.584,0,1.068-0.524,1.17-1.215c0.375,0.492,0.605,1.154,0.605,1.886c0,1.516-0.988,2.745-2.207,2.745s-2.207-1.229-2.207-2.745
			C46.148,80.858,46.779,79.832,47.655,79.468z"/>
		<path fill="#5C5B5D" d="M86.114,76.952c-2.08-0.305-5.711-0.648-10.068-0.426c-5.672,0.291-10.531,1.078-13.435,1.549
			c-0.866,0.14-1.548,0.251-2.067,0.32l-0.566,0.076c-0.637,0.088-1.055,0.144-1.41,0.161c-0.355-0.018-0.773-0.073-1.41-0.161
			l-0.566-0.076c-0.52-0.069-1.2-0.181-2.067-0.32c-2.903-0.471-7.763-1.258-13.435-1.549c-4.357-0.223-7.988,0.121-10.068,0.426
			c0,0-2.221,0.283-4.119,1.086l0.362,2.413c0,0,2.006-0.478,3.966-0.739c0.363,3.403,1.072,7.776,1.072,7.776l0.012,0.135
			c0.055,0.22,0.104,0.435,0.158,0.668c0.404,1.72,0.804,2.729,2.417,3.336c1.584,0.599,5.331,1.151,9.11,1.347
			c1.404,0.072,3-0.015,4.612-0.25c2.392-0.349,4.556-0.992,5.384-1.604c1.202-0.89,1.846-3.126,2.272-4.606l0.127-0.437
			c0.151-0.505,0.28-1.035,0.407-1.55c0.183-0.737,0.369-1.5,0.529-1.764c0.029-0.046,0.164-0.205,0.69-0.281
			c0.163-0.024,0.347-0.036,0.547-0.039c0.201,0.003,0.384,0.015,0.547,0.039c0.526,0.076,0.661,0.235,0.69,0.281
			c0.16,0.264,0.348,1.026,0.529,1.764c0.127,0.515,0.256,1.045,0.408,1.55l0.127,0.437c0.426,1.48,1.068,3.717,2.271,4.606
			c0.826,0.61,2.99,1.255,5.383,1.604c1.613,0.235,3.208,0.321,4.613,0.25c3.779-0.195,7.525-0.748,9.109-1.347
			c1.612-0.606,2.014-1.616,2.418-3.336c0.053-0.233,0.104-0.446,0.157-0.668l0.011-0.135c0,0,0.709-4.373,1.073-7.776
			c1.96,0.262,3.966,0.739,3.966,0.739l0.362-2.413C88.334,77.235,86.114,76.952,86.114,76.952z M54.825,82.192l-0.005,0.039
			c-0.095,0.783-0.608,4.75-1.444,6.101c-0.811,1.306-1.098,1.631-3.615,2.058c-0.108,0.018-0.221,0.034-0.338,0.051
			c-2.717,0.397-7.678,0.467-10.453-0.065l-0.193-0.037c-2.832-0.548-3.826-0.782-4.119-1.663c-0.396-1.191-1.154-6.693-1.211-7.873
			c-0.043-0.896,0.799-1.306,1.028-1.367c0.144-0.037,0.373-0.08,0.685-0.125c1.988-0.291,6.336-0.576,8.387-0.486
			c2.599,0.117,8.938,1.012,10.367,1.652C54.975,80.951,54.924,81.365,54.825,82.192z M82.478,88.675
			c-0.293,0.881-1.287,1.115-4.119,1.663l-0.192,0.037c-2.775,0.533-7.736,0.463-10.453,0.065c-0.117-0.017-0.23-0.033-0.338-0.051
			c-2.519-0.427-2.806-0.752-3.615-2.058c-0.836-1.351-1.352-5.317-1.445-6.101l-0.005-0.039c-0.101-0.827-0.149-1.241,0.912-1.717
			c1.429-0.64,7.769-1.535,10.366-1.651c2.052-0.091,6.399,0.194,8.388,0.485c0.312,0.047,0.542,0.088,0.685,0.127
			c0.229,0.061,1.071,0.47,1.028,1.365C83.633,81.981,82.874,87.483,82.478,88.675z"/>
		<path fill="#A1D4E9" d="M49.381,70.841c0,0-5.188-2.475-8.158,2.12c0,0-0.307-4.569,3.884-5.08S49.381,70.841,49.381,70.841z"/>
		<path fill="#A1D4E9" d="M47.435,64.127c0,0-4.81-2.27-7.002,2.093c0,0-0.716-3.812,2.717-4.731
			C46.583,60.568,47.435,64.127,47.435,64.127z"/>
		<path fill="#A1D4E9" d="M67.969,73.644c0,0,4.029-1.922,6.336,1.646c0,0,0.238-3.549-3.016-3.945
			C68.034,70.947,67.969,73.644,67.969,73.644z"/>
		<path fill="#A1D4E9" d="M70.834,67.287c0,0,4.078-0.66,4.775,3.067c0,0,1.354-2.691-1.01-4.115
			C72.235,64.813,70.834,67.287,70.834,67.287z"/>
		<path fill="#B2DEEF" d="M49.021,107.04c0,0,2.847-1.913,4.528-2.177c0,0,0.367,3.61,2.037,5.39c0,0,3.604-3.249,7.168-3.48
			c0,0,0.92,1.98,2.414,2.715l-0.008,0.023c0.539,0.336,1.198,0.676,1.838,0.818c0,0,2.045-1.238,2.639-3.499
			c0,0,0.197,4.772-2.799,7.374c0,0-2.285-1.115-3.932-2.9c-0.494-0.481-1.008-1.041-1.258-1.496c0,0-5.286,3.738-5.479,5.871
			c0,0-3.815-3.72-5.117-6.586c0,0-2.547,0.805-3.254,1.322c0,0-2.047-3.348-2.461-6.368
			C45.336,104.048,47.799,106.399,49.021,107.04z"/>
	</g>
	<path fill="#5C5B5D" d="M51.553,100.449c0,0,3.039-1.181,3.629-2.271c0,0,7.828,0.564,12.863-3.203
		C68.045,94.976,62.901,107.479,51.553,100.449z"/>
</g>
<g>
</g>
<g>
</g>
<g>
</g>
<g>
</g>
<g>
</g>
<g>
</g>
<g>
</g>
<g>
</g>
<g>
</g>
<g>
</g>
<g>
</g>
<g>
</g>
<g>
</g>
<g>
</g>
<g>
</g>
</svg>
