<?xml version="1.0" encoding="utf-8"?>
<!-- Generator: Adobe Illustrator 16.0.0, SVG Export Plug-In . SVG Version: 6.00 Build 0)  -->
<!DOCTYPE svg PUBLIC "-//W3C//DTD SVG 1.1//EN" "http://www.w3.org/Graphics/SVG/1.1/DTD/svg11.dtd">
<svg version="1.1" id="Layer_1" xmlns="http://www.w3.org/2000/svg" xmlns:xlink="http://www.w3.org/1999/xlink" x="0px" y="0px"
	 width="130.75px" height="122.248px" viewBox="0 0 130.75 122.248" enable-background="new 0 0 130.75 122.248"
	 xml:space="preserve">
<g>
	<path fill="#CCCCCC" d="M96.82,38.237v-0.413H33.353V23.858H96.4v14.378H96.82v-0.413V38.237h0.352V23.033H32.583v15.616h64.589
		v-0.413H96.82z M86.243,79.719h0.42V40.644H96.4v38.732H86.243V79.719h0.42H86.243v0.415h10.929V39.819H85.823v40.314h0.42V79.719z
		"/>
	<path fill="#CCCCCC" d="M59.552,59.012v0.344h25.08V39.819H59.202v19.538h0.351V59.012h0.42V40.644h23.818v17.957H59.552V59.012
		h0.42H59.552z M32.933,59.012v0.344h25.078V39.819H32.583v19.538h0.351V59.012h0.42V40.644H57.17v17.957H32.933V59.012h0.42H32.933
		z M59.552,79.719v0.415h25.08V60.595H59.202v19.538h0.351V79.719h0.42V61.353h23.818v17.955H59.552V79.719h0.42H59.552z
		 M32.933,79.719v0.415h25.078V60.595H32.583v19.538h0.351V79.719h0.42V61.353H57.17v17.955H32.933V79.719h0.42H32.933z"/>
	<g>
		<g>
			<g>
				<rect x="32.775" y="82.192" fill="#FFFFFF" width="64.725" height="16.088"/>
				<polygon fill="#F15A24" points="97.744,98.851 97.744,98.486 33.433,98.486 33.433,82.75 97.317,82.75 97.317,98.851 
					97.744,98.851 97.744,98.486 97.744,98.851 98.168,98.851 98.168,82.021 32.583,82.021 32.583,99.215 98.168,99.215 
					98.168,98.851 				"/>
				<line fill="none" stroke="#B3B3B3" stroke-width="3" stroke-miterlimit="10" x1="35.559" y1="86.66" x2="48.783" y2="86.66"/>
				<line fill="none" stroke="#B3B3B3" stroke-width="3" stroke-miterlimit="10" x1="52.262" y1="86.66" x2="63.398" y2="86.66"/>
				<line fill="none" stroke="#B3B3B3" stroke-width="2" stroke-miterlimit="10" x1="52.262" y1="89.938" x2="60.614" y2="89.938"/>
				<line fill="none" stroke="#B3B3B3" stroke-width="2" stroke-miterlimit="10" x1="52.262" y1="92.321" x2="61.31" y2="92.321"/>
				<line fill="none" stroke="#B3B3B3" stroke-width="2" stroke-miterlimit="10" x1="52.262" y1="94.705" x2="59.222" y2="94.705"/>
				<line fill="none" stroke="#B3B3B3" stroke-width="3" stroke-miterlimit="10" x1="66.877" y1="86.66" x2="78.708" y2="86.66"/>
				<line fill="none" stroke="#B3B3B3" stroke-width="3" stroke-miterlimit="10" x1="82.189" y1="86.66" x2="94.716" y2="86.66"/>
			</g>
		</g>
		<polygon fill="#F15A24" points="76.106,91.066 70.708,88.329 71.044,94.273 72.962,93.031 74.448,95.369 75.511,94.744 
			73.916,92.501 		"/>
	</g>
</g>
<g>
</g>
<g>
</g>
<g>
</g>
<g>
</g>
<g>
</g>
<g>
</g>
<g>
</g>
<g>
</g>
<g>
</g>
<g>
</g>
<g>
</g>
<g>
</g>
<g>
</g>
<g>
</g>
<g>
</g>
</svg>
