<?xml version="1.0" encoding="utf-8"?>
<!-- Generator: Adobe Illustrator 16.0.0, SVG Export Plug-In . SVG Version: 6.00 Build 0)  -->
<!DOCTYPE svg PUBLIC "-//W3C//DTD SVG 1.1//EN" "http://www.w3.org/Graphics/SVG/1.1/DTD/svg11.dtd">
<svg version="1.1" id="Layer_1" xmlns="http://www.w3.org/2000/svg" xmlns:xlink="http://www.w3.org/1999/xlink" x="0px" y="0px"
	 width="130.75px" height="122.248px" viewBox="0 0 130.75 122.248" enable-background="new 0 0 130.75 122.248"
	 xml:space="preserve">
<path fill="#CCCCCC" d="M113.25,27.748v-0.6h-90.6v-20.3h90v20.9H113.25v-0.6V27.748h0.5v-22.1h-92.2v22.7h92.2v-0.6H113.25z
	 M98.151,88.048h0.6v-56.8h13.9v56.3h-14.5V88.048h0.6H98.151v0.603h15.6V30.048H97.551v58.601h0.6V88.048z"/>
<path fill="#CCCCCC" d="M60.051,57.948v0.5h35.8v-28.4h-36.3v28.4h0.5V57.948h0.6v-26.7h34v26.101h-34.6V57.948h0.6H60.051z
	 M22.051,57.948v0.5h35.8v-28.4h-36.3v28.4h0.5V57.948h0.6v-26.7h34v26.101h-34.6V57.948h0.6H22.051z M60.051,88.048v0.603h35.8
	V60.248h-36.3v28.4h0.5V88.048h0.6V61.35h34v26.1h-34.6V88.048h0.6H60.051z M22.051,88.048v0.603h35.8V60.248h-36.3v28.4h0.5V88.048
	h0.6V61.35h34v26.1h-34.6V88.048h0.6H22.051z"/>
<g>
	<g>
		<g>
			<rect x="21.826" y="91.642" fill="#FFFFFF" width="92.395" height="23.387"/>
			<polygon fill="#F15A24" points="114.569,115.857 114.569,115.328 22.766,115.328 22.766,92.453 113.959,92.453 113.959,115.857 
				114.569,115.857 114.569,115.328 114.569,115.857 115.176,115.857 115.176,91.395 21.551,91.395 21.551,116.387 115.176,116.387 
				115.176,115.857 			"/>
			<line fill="none" stroke="#B3B3B3" stroke-width="3" stroke-miterlimit="10" x1="25.8" y1="98.138" x2="44.677" y2="98.138"/>
			<line fill="none" stroke="#B3B3B3" stroke-width="3" stroke-miterlimit="10" x1="49.644" y1="98.138" x2="65.54" y2="98.138"/>
			
				<line fill="none" stroke="#B3B3B3" stroke-width="2" stroke-miterlimit="10" x1="49.644" y1="102.901" x2="61.566" y2="102.901"/>
			<line fill="none" stroke="#B3B3B3" stroke-width="2" stroke-miterlimit="10" x1="49.644" y1="106.366" x2="62.56" y2="106.366"/>
			
				<line fill="none" stroke="#B3B3B3" stroke-width="2" stroke-miterlimit="10" x1="49.644" y1="109.831" x2="59.579" y2="109.831"/>
			<line fill="none" stroke="#B3B3B3" stroke-width="3" stroke-miterlimit="10" x1="70.507" y1="98.138" x2="87.397" y2="98.138"/>
			<line fill="none" stroke="#B3B3B3" stroke-width="3" stroke-miterlimit="10" x1="92.365" y1="98.138" x2="110.248" y2="98.138"/>
		</g>
	</g>
	<polygon fill="#F15A24" points="83.68,104.543 75.975,100.562 76.456,109.203 79.194,107.398 81.315,110.797 82.833,109.889 
		80.555,106.627 	"/>
</g>
<g>
</g>
<g>
</g>
<g>
</g>
<g>
</g>
<g>
</g>
<g>
</g>
<g>
</g>
<g>
</g>
<g>
</g>
<g>
</g>
<g>
</g>
<g>
</g>
<g>
</g>
<g>
</g>
<g>
</g>
</svg>
