<?xml version="1.0" encoding="utf-8"?>
<!-- Generator: Adobe Illustrator 16.0.0, SVG Export Plug-In . SVG Version: 6.00 Build 0)  -->
<!DOCTYPE svg PUBLIC "-//W3C//DTD SVG 1.1//EN" "http://www.w3.org/Graphics/SVG/1.1/DTD/svg11.dtd">
<svg version="1.1" id="Layer_1" xmlns="http://www.w3.org/2000/svg" xmlns:xlink="http://www.w3.org/1999/xlink" x="0px" y="0px"
	 width="130px" height="116px" viewBox="-10.438 7 130 116" enable-background="new -10.438 7 130 116" xml:space="preserve">
<path fill="#F05A29" d="M103.625,35.5v-0.6h-90.6V14.6h90v20.9H103.625v-0.6V35.5h0.5V13.4h-92.2v22.7h92.2v-0.6H103.625z"/>
<path fill="#CCCCCC" d="M50.424,65.7v0.5h35.801V37.8H49.924v28.4h0.5V65.7h0.601V39h33.999v26.101h-34.6V65.7h0.601H50.424z
	 M12.424,65.7v0.5h35.8V37.8h-36.3v28.4h0.5V65.7h0.6V39h34v26.101h-34.6V65.7h0.6H12.424z M50.424,95.801v0.602h35.801V68H49.924
	v28.4h0.5V95.801h0.601V69.102h33.999v26.1h-34.6V95.801h0.601H50.424z M12.424,95.801v0.602h35.8V68h-36.3v28.4h0.5V95.801h0.6
	V69.102h34v26.1h-34.6V95.801h0.6H12.424z"/>
<polygon fill="#CCCCCC" points="103.625,120.4 103.625,119.801 13.024,119.801 13.024,99.5 103.024,99.5 103.024,120.4 
	103.625,120.4 103.625,119.801 103.625,120.4 104.125,120.4 104.125,98.301 11.924,98.301 11.924,121 104.125,121 104.125,120.4 "/>
<polygon fill="#CCCCCC" points="88.524,95.801 89.125,95.801 89.125,39 103.024,39 103.024,95.301 88.524,95.301 88.524,95.801 
	89.125,95.801 88.524,95.801 88.524,96.402 104.125,96.402 104.125,37.8 87.924,37.8 87.924,96.4 88.524,96.4 "/>
<g>
	<rect x="20.469" y="18.568" fill="none" width="65.25" height="25.492"/>
	<path fill="#B3B3B3" d="M21.367,19.023h2.222c1.012,0,1.747,0.145,2.205,0.432c0.458,0.289,0.686,0.747,0.686,1.375
		c0,0.427-0.1,0.776-0.3,1.05c-0.2,0.274-0.466,0.438-0.798,0.493v0.049c0.453,0.101,0.779,0.29,0.979,0.566
		c0.2,0.276,0.3,0.645,0.3,1.104c0,0.65-0.235,1.159-0.706,1.523c-0.471,0.363-1.109,0.547-1.917,0.547h-2.671V19.023z M22.88,21.85
		h0.879c0.41,0,0.707-0.063,0.891-0.19s0.276-0.337,0.276-0.63c0-0.273-0.1-0.47-0.3-0.589c-0.2-0.118-0.517-0.178-0.95-0.178H22.88
		V21.85z M22.88,23.051v1.859h0.986c0.417,0,0.724-0.079,0.923-0.238c0.199-0.159,0.298-0.403,0.298-0.732
		c0-0.593-0.423-0.889-1.27-0.889H22.88L22.88,23.051z"/>
	<path fill="#B3B3B3" d="M27.985,26.16v-7.138H29.5v5.888h2.896v1.25H27.985z"/>
	<path fill="#B3B3B3" d="M40.015,22.583c0,1.182-0.293,2.09-0.879,2.725c-0.586,0.635-1.426,0.952-2.52,0.952
		c-1.094,0-1.934-0.317-2.52-0.952c-0.586-0.635-0.879-1.546-0.879-2.734s0.294-2.096,0.881-2.722c0.587-0.627,1.43-0.94,2.527-0.94
		c1.097,0,1.936,0.315,2.517,0.947C39.723,20.49,40.015,21.398,40.015,22.583z M34.804,22.583c0,0.798,0.151,1.398,0.454,1.802
		c0.303,0.403,0.755,0.604,1.357,0.604c1.208,0,1.812-0.802,1.812-2.406c0-1.608-0.601-2.412-1.802-2.412
		c-0.602,0-1.056,0.202-1.362,0.608C34.958,21.183,34.804,21.784,34.804,22.583z"/>
	<path fill="#B3B3B3" d="M44.104,22.153h2.832v3.701c-0.459,0.149-0.891,0.256-1.296,0.315c-0.405,0.06-0.819,0.09-1.243,0.09
		c-1.078,0-1.9-0.315-2.468-0.949c-0.568-0.634-0.852-1.543-0.852-2.728c0-1.152,0.33-2.051,0.989-2.695s1.573-0.967,2.742-0.967
		c0.732,0,1.439,0.146,2.119,0.439l-0.503,1.211c-0.521-0.261-1.063-0.391-1.626-0.391c-0.654,0-1.178,0.22-1.572,0.659
		s-0.591,1.03-0.591,1.772c0,0.774,0.159,1.366,0.476,1.774c0.317,0.409,0.779,0.612,1.384,0.612c0.316,0,0.636-0.031,0.962-0.098
		v-1.489h-1.353V22.153z"/>
</g>
</svg>
